<svg xmlns="http://www.w3.org/2000/svg" xmlns:xlink="http://www.w3.org/1999/xlink" width="500" zoomAndPan="magnify" viewBox="0 0 375 374.999991" height="500" preserveAspectRatio="xMidYMid meet" version="1.0"><defs><g/><clipPath id="941d2c169e"><path d="M 158.527344 151.976562 L 215.164062 151.976562 L 215.164062 206.914062 L 158.527344 206.914062 Z M 158.527344 151.976562 " clip-rule="nonzero"/></clipPath><clipPath id="f844de1c05"><path d="M 181 189 L 193 189 L 193 206.914062 L 181 206.914062 Z M 181 189 " clip-rule="nonzero"/></clipPath><clipPath id="411cdbd389"><path d="M 129 157 L 160 157 L 160 214 L 129 214 Z M 129 157 " clip-rule="nonzero"/></clipPath><clipPath id="a9eb9cb26d"><path d="M 134.351562 155.777344 L 172.742188 166.078125 L 159.914062 213.886719 L 121.523438 203.585938 Z M 134.351562 155.777344 " clip-rule="nonzero"/></clipPath><clipPath id="34e5ddd430"><path d="M 134.351562 155.777344 L 172.742188 166.078125 L 159.914062 213.886719 L 121.523438 203.585938 Z M 134.351562 155.777344 " clip-rule="nonzero"/></clipPath><clipPath id="f2120f80b0"><path d="M 215 156 L 244 156 L 244 214 L 215 214 Z M 215 156 " clip-rule="nonzero"/></clipPath><clipPath id="6e0d246e53"><path d="M 200.085938 166.992188 L 237.683594 154.089844 L 253.75 200.910156 L 216.152344 213.8125 Z M 200.085938 166.992188 " clip-rule="nonzero"/></clipPath><clipPath id="dc7185555c"><path d="M 237.417969 154.183594 L 199.820312 167.082031 L 215.882812 213.902344 L 253.484375 201.003906 Z M 237.417969 154.183594 " clip-rule="nonzero"/></clipPath></defs><g clip-path="url(#941d2c169e)"><path fill="#3b3b3b" d="M 210.054688 206.921875 L 163.636719 206.921875 L 163.636719 186.007812 L 158.546875 186.007812 L 186.847656 151.984375 L 215.144531 186.007812 L 210.054688 186.007812 Z M 164.710938 205.84375 L 208.984375 205.84375 L 208.984375 184.9375 L 212.855469 184.9375 L 186.847656 153.660156 L 160.835938 184.9375 L 164.707031 184.9375 L 164.707031 205.84375 Z M 164.710938 205.84375 " fill-opacity="1" fill-rule="nonzero"/></g><path fill="#3b3b3b" d="M 186.847656 174.964844 C 184.652344 174.964844 182.871094 173.179688 182.871094 170.980469 C 182.871094 168.78125 184.652344 166.996094 186.847656 166.996094 C 189.039062 166.996094 190.820312 168.78125 190.820312 170.980469 C 190.820312 173.179688 189.039062 174.964844 186.847656 174.964844 Z M 186.847656 168.070312 C 185.246094 168.070312 183.941406 169.375 183.941406 170.980469 C 183.941406 172.585938 185.246094 173.890625 186.847656 173.890625 C 188.449219 173.890625 189.75 172.585938 189.75 170.980469 C 189.75 169.375 188.449219 168.070312 186.847656 168.070312 Z M 186.847656 168.070312 " fill-opacity="1" fill-rule="nonzero"/><g clip-path="url(#f844de1c05)"><path fill="#3b3b3b" d="M 192.042969 206.921875 L 181.648438 206.921875 L 181.648438 194.746094 C 181.648438 191.871094 183.980469 189.535156 186.847656 189.535156 C 189.710938 189.535156 192.042969 191.871094 192.042969 194.746094 Z M 182.71875 205.84375 L 190.972656 205.84375 L 190.972656 194.746094 C 190.972656 192.464844 189.121094 190.609375 186.847656 190.609375 C 184.570312 190.609375 182.722656 192.464844 182.722656 194.746094 L 182.722656 205.84375 Z M 182.71875 205.84375 " fill-opacity="1" fill-rule="nonzero"/></g><path stroke-linecap="round" transform="matrix(1.139138, 0, 0, 0.71777, 179.803836, 140.780074)" fill="none" stroke-linejoin="miter" d="M 0.5014 0.00163847 L 11.934111 0.00163847 " stroke="#3b3b3b" stroke-width="1" stroke-opacity="1" stroke-miterlimit="4"/><path stroke-linecap="round" transform="matrix(0.000000000000000569, 1.125889, -0.71777, 0.000000000000000363, 186.932498, 132.925026)" fill="none" stroke-linejoin="miter" d="M 0.500276 -0.00152685 L 17.611752 -0.00152685 " stroke="#3b3b3b" stroke-width="1" stroke-opacity="1" stroke-miterlimit="4"/><g clip-path="url(#411cdbd389)"><g clip-path="url(#a9eb9cb26d)"><g clip-path="url(#34e5ddd430)"><path fill="#3b3b3b" d="M 141.511719 157.898438 C 141.847656 158.953125 141.417969 160.09375 141.097656 161.0625 C 140.613281 162.507812 140.011719 163.914062 139.480469 165.363281 C 139.28125 165.941406 139.078125 166.519531 138.925781 167.117188 C 138.722656 167.855469 138.542969 168.605469 138.410156 169.359375 C 138.332031 169.71875 138.011719 171.738281 137.84375 173.769531 C 137.683594 175.804688 137.691406 177.839844 137.691406 178.179688 C 137.726562 178.941406 137.726562 179.703125 137.785156 180.464844 C 137.867188 181.238281 137.921875 182.015625 138.03125 182.78125 C 138.15625 183.550781 138.25 184.324219 138.402344 185.085938 C 138.347656 184.4375 138.351562 183.78125 138.398438 183.140625 C 138.441406 182.464844 138.585938 181.792969 138.734375 181.132812 C 138.875 180.472656 139.070312 179.828125 139.296875 179.195312 C 139.457031 178.742188 139.625 178.304688 139.832031 177.875 C 139.824219 177.84375 139.828125 177.8125 139.84375 177.78125 C 140.003906 177.472656 139.972656 177.046875 140.066406 176.71875 C 140.214844 176.152344 140.515625 175.609375 140.785156 175.085938 C 141.066406 174.523438 141.339844 173.964844 141.644531 173.417969 C 141.941406 172.871094 142.234375 172.335938 142.585938 171.820312 C 143.117188 170.992188 143.738281 170.132812 144.546875 169.515625 C 144.804688 169.3125 145.667969 168.742188 146.101562 169.078125 C 146.5 169.382812 145.800781 170.273438 145.679688 170.515625 C 145.171875 171.527344 144.636719 172.546875 144.042969 173.558594 C 143.472656 174.492188 142.890625 175.390625 142.117188 176.269531 C 141.589844 176.898438 140.984375 177.863281 140.113281 178.238281 C 140.09375 178.25 140.074219 178.25 140.054688 178.253906 C 139.914062 178.582031 139.785156 178.917969 139.664062 179.261719 C 139.425781 179.914062 139.238281 180.578125 139.089844 181.257812 C 138.925781 181.9375 138.800781 182.632812 138.757812 183.332031 C 138.632812 184.648438 138.921875 185.953125 138.886719 187.285156 L 139.371094 189.050781 C 140.175781 191.714844 141.234375 194.324219 142.625 196.746094 L 143.125 197.585938 C 143.273438 197.84375 143.5 198.113281 143.601562 198.394531 C 143.445312 197.949219 143.261719 197.515625 143.144531 197.070312 C 143.054688 196.707031 142.945312 196.355469 142.871094 195.996094 C 142.808594 195.628906 142.757812 195.261719 142.746094 194.886719 C 142.730469 194.429688 142.746094 193.972656 142.78125 193.519531 C 142.816406 193.070312 142.917969 192.605469 143.003906 192.164062 L 143.089844 191.785156 C 143.011719 191.351562 142.855469 190.949219 142.839844 190.5 C 142.824219 189.847656 142.839844 189.199219 142.867188 188.566406 C 142.902344 187.953125 143 187.328125 143.101562 186.730469 C 143.191406 186.136719 143.363281 185.539062 143.585938 184.960938 C 143.75 184.527344 143.90625 184.042969 144.144531 183.585938 C 144.394531 183.121094 144.699219 182.6875 145.101562 182.367188 C 145.414062 182.117188 145.742188 182.019531 145.894531 182.375 C 145.980469 182.578125 145.902344 182.863281 145.890625 183.078125 C 145.855469 183.667969 145.878906 184.242188 145.824219 184.839844 C 145.761719 185.414062 145.753906 185.964844 145.679688 186.542969 C 145.601562 187.113281 145.519531 187.695312 145.4375 188.289062 C 145.195312 189.507812 145.078125 191.488281 143.429688 192.242188 C 143.257812 192.9375 143.15625 193.625 143.121094 194.296875 C 143.097656 194.679688 143.125 195.136719 143.1875 195.625 C 143.246094 196.113281 143.398438 196.605469 143.527344 197.09375 C 143.667969 197.578125 143.816406 198.042969 143.953125 198.445312 C 144.109375 198.832031 144.257812 199.148438 144.355469 199.359375 C 144.65625 199.96875 145.015625 200.570312 145.4375 201.121094 C 145.882812 201.65625 146.328125 202.191406 146.765625 202.71875 C 147.191406 203.289062 147.710938 203.777344 148.183594 204.308594 L 148.90625 205.089844 C 149.097656 205.308594 149.503906 205.550781 149.636719 205.804688 C 149.308594 205.226562 149.144531 204.542969 148.992188 203.875 C 148.847656 203.207031 148.726562 202.542969 148.570312 201.910156 C 148.535156 201.898438 148.5 201.871094 148.480469 201.824219 C 148.1875 201.015625 147.5 200.382812 147.101562 199.632812 C 146.777344 198.886719 146.550781 198.109375 146.390625 197.328125 C 146.253906 196.621094 146.21875 195.875 146.222656 195.164062 C 146.230469 194.804688 146.25 194.453125 146.3125 194.097656 C 146.382812 193.734375 146.480469 193.378906 146.601562 193.027344 C 146.625 192.960938 146.71875 192.910156 146.792969 192.90625 C 147.53125 192.867188 147.851562 193.542969 148.089844 194.320312 C 148.195312 194.714844 148.257812 195.148438 148.304688 195.535156 C 148.351562 195.925781 148.421875 196.25 148.453125 196.464844 C 148.636719 197.363281 148.78125 198.328125 149.039062 199.238281 C 149.238281 200.019531 149.515625 201.355469 149.023438 202.230469 C 149.015625 202.246094 149.003906 202.25 148.996094 202.261719 C 149.183594 203.15625 149.324219 204.109375 149.652344 205.007812 C 149.859375 205.511719 150.09375 206.015625 150.4375 206.453125 C 150.644531 206.710938 150.929688 206.90625 151.113281 207.175781 C 151.242188 207.355469 151.445312 207.507812 151.621094 207.640625 L 152.78125 208.582031 C 154.96875 210.40625 157.382812 211.933594 159.824219 213.390625 C 160.011719 213.507812 159.828125 213.832031 159.636719 213.714844 C 155.816406 211.535156 152.230469 208.910156 149.085938 205.8125 C 148.535156 205.265625 148.027344 204.679688 147.492188 204.117188 C 147.484375 204.109375 147.476562 204.105469 147.46875 204.097656 C 146.808594 203.402344 146.074219 202.855469 145.207031 202.425781 C 144.78125 202.207031 144.3125 202.023438 143.871094 201.820312 C 143.425781 201.613281 142.976562 201.402344 142.539062 201.199219 L 142.242188 201.058594 C 142.214844 201.054688 142.183594 201.042969 142.15625 201.023438 L 142.101562 200.988281 C 141.820312 200.847656 141.539062 200.707031 141.261719 200.5625 C 140.511719 200.269531 139.691406 200.0625 138.976562 199.730469 C 138.523438 199.515625 138.085938 199.261719 137.671875 198.972656 C 137.273438 198.671875 136.90625 198.332031 136.546875 197.957031 C 136.132812 197.511719 135.726562 197.046875 135.351562 196.558594 C 134.996094 196.0625 134.640625 195.558594 134.265625 195.0625 C 133.617188 194.242188 132.964844 193.449219 132.585938 192.445312 C 132.542969 192.328125 132.625 192.171875 132.746094 192.183594 C 134.488281 192.328125 135.832031 193.269531 136.921875 194.589844 C 137.613281 195.5 138.257812 196.464844 138.925781 197.378906 C 139.246094 197.839844 139.589844 198.332031 139.96875 198.792969 C 140.339844 199.257812 140.734375 199.695312 141.175781 200.027344 C 142.851562 200.933594 144.589844 201.566406 146.070312 202.453125 C 144.273438 200.289062 142.75 197.902344 141.492188 195.390625 C 141.183594 194.933594 140.804688 194.515625 140.460938 194.082031 C 140.113281 193.644531 139.742188 193.222656 139.359375 192.800781 C 138.972656 192.390625 138.613281 191.953125 138.238281 191.535156 C 137.882812 191.148438 137.417969 190.601562 136.9375 190.339844 C 136.433594 190.066406 135.945312 189.796875 135.460938 189.476562 C 134.972656 189.144531 134.492188 188.785156 134.03125 188.386719 C 133.582031 187.988281 133.179688 187.546875 132.785156 187.074219 C 132.46875 186.6875 132.144531 186.304688 131.832031 185.90625 C 131.539062 185.503906 131.25 185.089844 130.988281 184.652344 C 130.640625 184.074219 130.34375 183.445312 130.175781 182.785156 C 130.128906 182.628906 129.742188 181.132812 130.273438 181.375 C 131.167969 181.785156 131.988281 182.441406 132.710938 183.175781 C 133.46875 183.910156 134.128906 184.726562 134.667969 185.488281 C 135.308594 186.3125 135.753906 187.214844 136.316406 188.054688 C 136.703125 188.625 137.058594 189.203125 137.410156 189.773438 C 137.773438 190.339844 138.183594 190.882812 138.605469 191.394531 C 139.273438 192.238281 140.09375 193.027344 140.757812 193.871094 L 140.1875 192.503906 C 140.140625 192.492188 140.101562 192.460938 140.078125 192.40625 C 139.550781 190.894531 138.460938 189.441406 137.734375 187.960938 C 136.972656 186.425781 136.289062 184.832031 135.550781 183.238281 C 135.507812 183.238281 135.460938 183.214844 135.425781 183.164062 L 135.347656 183.050781 L 135.335938 183.039062 L 135.320312 183.011719 C 133.664062 180.503906 131.78125 177.832031 131.246094 174.628906 C 130.949219 172.929688 131.101562 171.191406 131.265625 169.488281 C 131.484375 167.515625 131.726562 165.558594 132.261719 163.644531 C 132.308594 163.46875 132.574219 163.4375 132.625 163.628906 C 133.484375 166.789062 133.25 170.039062 133.761719 173.164062 C 134.027344 174.792969 134.394531 176.390625 134.640625 177.996094 C 134.726562 178.550781 134.835938 179.097656 134.941406 179.640625 C 135.039062 180.183594 135.164062 180.722656 135.339844 181.253906 C 135.5 181.785156 135.667969 182.3125 135.847656 182.828125 C 136.054688 183.339844 136.261719 183.847656 136.464844 184.351562 C 136.726562 185.019531 137.054688 185.667969 137.355469 186.316406 L 137.800781 187.28125 L 138.289062 188.230469 C 138.597656 188.808594 138.894531 189.402344 139.265625 189.964844 C 138.976562 189.15625 138.792969 188.316406 138.554688 187.492188 C 138.53125 187.46875 138.515625 187.433594 138.515625 187.390625 L 138.511719 187.34375 C 138.390625 186.890625 138.3125 186.425781 138.210938 185.96875 C 137.558594 182.902344 137.265625 179.769531 137.273438 176.648438 C 137.261719 176.421875 137.242188 175.03125 137.242188 173.511719 C 137.246094 171.992188 137.304688 170.351562 137.214844 169.621094 C 137.007812 168.054688 137.367188 166.460938 137.710938 164.921875 L 137.765625 164.691406 C 138.125 163.21875 138.796875 161.867188 139.417969 160.507812 C 139.871094 159.507812 140.277344 158.433594 141.21875 157.773438 C 141.335938 157.6875 141.476562 157.78125 141.511719 157.898438 Z M 141.511719 157.898438 " fill-opacity="1" fill-rule="nonzero"/></g></g></g><g clip-path="url(#f2120f80b0)"><g clip-path="url(#6e0d246e53)"><g clip-path="url(#dc7185555c)"><path fill="#3b3b3b" d="M 230.417969 156.789062 C 230.160156 157.863281 230.664062 158.972656 231.046875 159.917969 C 231.632812 161.324219 232.328125 162.6875 232.957031 164.09375 C 233.195312 164.660156 233.4375 165.222656 233.632812 165.804688 C 233.882812 166.53125 234.113281 167.265625 234.296875 168.011719 C 234.398438 168.363281 234.859375 170.355469 235.164062 172.371094 C 235.464844 174.390625 235.59375 176.421875 235.617188 176.761719 C 235.636719 177.523438 235.683594 178.285156 235.679688 179.046875 C 235.648438 179.824219 235.648438 180.601562 235.59375 181.375 C 235.519531 182.148438 235.480469 182.925781 235.378906 183.695312 C 235.390625 183.046875 235.339844 182.394531 235.25 181.757812 C 235.160156 181.085938 234.972656 180.425781 234.777344 179.777344 C 234.59375 179.128906 234.355469 178.5 234.085938 177.882812 C 233.894531 177.441406 233.695312 177.015625 233.460938 176.601562 C 233.464844 176.570312 233.460938 176.539062 233.441406 176.511719 C 233.261719 176.210938 233.261719 175.785156 233.148438 175.464844 C 232.960938 174.90625 232.621094 174.386719 232.320312 173.882812 C 232 173.34375 231.6875 172.804688 231.347656 172.28125 C 231.015625 171.753906 230.683594 171.242188 230.300781 170.75 C 229.710938 169.960938 229.035156 169.144531 228.1875 168.585938 C 227.914062 168.398438 227.015625 167.886719 226.605469 168.253906 C 226.226562 168.585938 226.988281 169.425781 227.121094 169.660156 C 227.703125 170.632812 228.304688 171.613281 228.964844 172.582031 C 229.597656 173.476562 230.238281 174.332031 231.074219 175.160156 C 231.640625 175.75 232.308594 176.667969 233.203125 176.984375 C 233.226562 176.992188 233.246094 176.996094 233.265625 176.996094 C 233.425781 177.3125 233.582031 177.640625 233.722656 177.972656 C 234.003906 178.609375 234.238281 179.261719 234.433594 179.925781 C 234.644531 180.59375 234.8125 181.277344 234.902344 181.972656 C 235.121094 183.277344 234.921875 184.601562 235.046875 185.925781 L 234.683594 187.71875 C 234.0625 190.433594 233.1875 193.109375 231.960938 195.617188 L 231.523438 196.492188 C 231.390625 196.757812 231.183594 197.042969 231.101562 197.332031 C 231.230469 196.878906 231.378906 196.429688 231.464844 195.976562 C 231.535156 195.613281 231.617188 195.253906 231.667969 194.886719 C 231.703125 194.515625 231.730469 194.148438 231.714844 193.773438 C 231.699219 193.316406 231.652344 192.863281 231.585938 192.414062 C 231.519531 191.964844 231.390625 191.507812 231.269531 191.078125 L 231.160156 190.699219 C 231.210938 190.265625 231.339844 189.851562 231.324219 189.402344 C 231.296875 188.75 231.230469 188.105469 231.160156 187.476562 C 231.089844 186.867188 230.945312 186.25 230.804688 185.660156 C 230.671875 185.074219 230.460938 184.488281 230.203125 183.925781 C 230.007812 183.507812 229.816406 183.035156 229.546875 182.59375 C 229.265625 182.148438 228.933594 181.738281 228.511719 181.445312 C 228.179688 181.21875 227.847656 181.140625 227.71875 181.503906 C 227.648438 181.714844 227.746094 181.992188 227.773438 182.207031 C 227.847656 182.792969 227.863281 183.367188 227.957031 183.960938 C 228.058594 184.527344 228.105469 185.078125 228.21875 185.648438 C 228.335938 186.214844 228.457031 186.785156 228.578125 187.375 C 228.902344 188.574219 229.15625 190.542969 230.851562 191.183594 C 231.070312 191.863281 231.21875 192.542969 231.304688 193.210938 C 231.351562 193.589844 231.355469 194.046875 231.324219 194.539062 C 231.300781 195.03125 231.183594 195.53125 231.085938 196.027344 C 230.980469 196.519531 230.863281 196.996094 230.753906 197.40625 C 230.625 197.804688 230.5 198.128906 230.414062 198.34375 C 230.160156 198.976562 229.839844 199.597656 229.457031 200.175781 C 229.050781 200.742188 228.640625 201.304688 228.242188 201.863281 C 227.855469 202.457031 227.371094 202.984375 226.933594 203.542969 L 226.265625 204.371094 C 226.089844 204.605469 225.703125 204.875 225.585938 205.136719 C 225.875 204.539062 225.992188 203.84375 226.097656 203.167969 C 226.199219 202.492188 226.269531 201.820312 226.382812 201.179688 C 226.421875 201.164062 226.453125 201.136719 226.46875 201.085938 C 226.703125 200.257812 227.351562 199.582031 227.691406 198.804688 C 227.96875 198.039062 228.140625 197.25 228.246094 196.457031 C 228.335938 195.746094 228.320312 195 228.265625 194.289062 C 228.230469 193.929688 228.191406 193.582031 228.101562 193.230469 C 228.007812 192.875 227.890625 192.523438 227.742188 192.183594 C 227.714844 192.117188 227.617188 192.070312 227.542969 192.070312 C 226.804688 192.085938 226.527344 192.78125 226.347656 193.574219 C 226.269531 193.972656 226.234375 194.410156 226.214844 194.800781 C 226.191406 195.195312 226.148438 195.523438 226.128906 195.738281 C 226.007812 196.648438 225.929688 197.617188 225.734375 198.542969 C 225.585938 199.335938 225.40625 200.691406 225.953125 201.527344 C 225.964844 201.542969 225.972656 201.546875 225.984375 201.558594 C 225.855469 202.464844 225.78125 203.421875 225.519531 204.34375 C 225.34375 204.859375 225.148438 205.378906 224.832031 205.839844 C 224.644531 206.109375 224.375 206.324219 224.207031 206.605469 C 224.089844 206.792969 223.898438 206.960938 223.730469 207.105469 L 222.640625 208.125 C 220.582031 210.09375 218.277344 211.78125 215.941406 213.398438 C 215.761719 213.527344 215.96875 213.839844 216.152344 213.710938 C 219.8125 211.277344 223.210938 208.410156 226.136719 205.105469 C 226.648438 204.523438 227.117188 203.902344 227.609375 203.304688 C 227.617188 203.300781 227.628906 203.292969 227.632812 203.285156 C 228.242188 202.546875 228.941406 201.953125 229.777344 201.464844 C 230.1875 201.214844 230.640625 201 231.070312 200.765625 C 231.496094 200.53125 231.929688 200.292969 232.355469 200.058594 L 232.640625 199.894531 C 232.667969 199.890625 232.695312 199.878906 232.722656 199.855469 L 232.777344 199.816406 C 233.046875 199.65625 233.316406 199.496094 233.582031 199.335938 C 234.3125 198.992188 235.117188 198.726562 235.808594 198.347656 C 236.246094 198.101562 236.660156 197.820312 237.058594 197.503906 C 237.433594 197.175781 237.777344 196.808594 238.109375 196.410156 C 238.496094 195.941406 238.867188 195.449219 239.207031 194.9375 C 239.527344 194.417969 239.847656 193.890625 240.1875 193.371094 C 240.78125 192.507812 241.375 191.667969 241.683594 190.644531 C 241.722656 190.523438 241.628906 190.375 241.507812 190.394531 C 239.78125 190.660156 238.503906 191.6875 237.503906 193.078125 C 236.878906 194.035156 236.300781 195.042969 235.695312 196 C 235.410156 196.480469 235.097656 196.996094 234.753906 197.480469 C 234.414062 197.96875 234.050781 198.433594 233.632812 198.792969 C 232.023438 199.8125 230.332031 200.5625 228.914062 201.550781 C 230.5625 199.269531 231.917969 196.78125 233 194.191406 C 233.277344 193.714844 233.625 193.269531 233.941406 192.8125 C 234.257812 192.355469 234.597656 191.90625 234.953125 191.460938 C 235.3125 191.023438 235.640625 190.566406 235.984375 190.121094 C 236.3125 189.710938 236.738281 189.132812 237.199219 188.839844 C 237.683594 188.53125 238.152344 188.230469 238.613281 187.875 C 239.082031 187.515625 239.535156 187.121094 239.964844 186.691406 C 240.386719 186.265625 240.761719 185.796875 241.121094 185.296875 C 241.40625 184.894531 241.707031 184.488281 241.992188 184.066406 C 242.257812 183.648438 242.515625 183.214844 242.746094 182.761719 C 243.054688 182.160156 243.304688 181.511719 243.429688 180.84375 C 243.464844 180.683594 243.75 179.164062 243.234375 179.441406 C 242.371094 179.910156 241.597656 180.621094 240.929688 181.40625 C 240.21875 182.191406 239.617188 183.050781 239.132812 183.84375 C 238.550781 184.710938 238.167969 185.640625 237.664062 186.519531 C 237.316406 187.113281 237.003906 187.714844 236.691406 188.308594 C 236.363281 188.894531 235.992188 189.464844 235.609375 190.007812 C 235 190.894531 234.234375 191.734375 233.628906 192.621094 L 234.105469 191.21875 C 234.152344 191.203125 234.191406 191.171875 234.207031 191.117188 C 234.632812 189.570312 235.621094 188.046875 236.242188 186.519531 C 236.894531 184.9375 237.46875 183.300781 238.097656 181.660156 C 238.140625 181.65625 238.1875 181.632812 238.21875 181.578125 L 238.289062 181.460938 L 238.300781 181.445312 L 238.316406 181.417969 C 239.792969 178.804688 241.488281 176.011719 241.804688 172.777344 C 241.984375 171.0625 241.714844 169.335938 241.433594 167.652344 C 241.082031 165.699219 240.707031 163.757812 240.042969 161.890625 C 239.984375 161.714844 239.71875 161.703125 239.679688 161.898438 C 239.039062 165.109375 239.492188 168.335938 239.195312 171.488281 C 239.042969 173.132812 238.785156 174.75 238.648438 176.371094 C 238.601562 176.925781 238.527344 177.480469 238.460938 178.027344 C 238.398438 178.578125 238.3125 179.125 238.175781 179.667969 C 238.050781 180.207031 237.921875 180.742188 237.773438 181.273438 C 237.605469 181.792969 237.433594 182.316406 237.261719 182.832031 C 237.046875 183.515625 236.765625 184.1875 236.507812 184.851562 L 236.128906 185.847656 L 235.707031 186.828125 C 235.441406 187.425781 235.183594 188.039062 234.851562 188.625 C 235.082031 187.796875 235.210938 186.949219 235.394531 186.109375 C 235.414062 186.082031 235.429688 186.050781 235.425781 186.007812 L 235.421875 185.960938 C 235.511719 185.5 235.5625 185.03125 235.632812 184.566406 C 236.070312 181.464844 236.148438 178.320312 235.929688 175.203125 C 235.925781 174.976562 235.851562 173.585938 235.746094 172.070312 C 235.636719 170.558594 235.46875 168.921875 235.511719 168.191406 C 235.605469 166.609375 235.140625 165.046875 234.691406 163.53125 L 234.621094 163.304688 C 234.160156 161.863281 233.398438 160.5625 232.6875 159.246094 C 232.167969 158.28125 231.691406 157.238281 230.707031 156.640625 C 230.582031 156.566406 230.449219 156.667969 230.417969 156.789062 Z M 230.417969 156.789062 " fill-opacity="1" fill-rule="nonzero"/></g></g></g><g fill="#3b3b3b" fill-opacity="1"><g transform="translate(143.223261, 150.930272)"><g><path d="M -4.96875 -8.765625 C -4.914062 -8.878906 -4.832031 -8.957031 -4.71875 -9 C -4.613281 -9.050781 -4.5 -9.050781 -4.375 -9 L -3.40625 -8.578125 C -3.175781 -8.484375 -3.097656 -8.34375 -3.171875 -8.15625 L -3.296875 -7.890625 C -3.367188 -7.703125 -3.519531 -7.65625 -3.75 -7.75 L -4.328125 -8 L -5.609375 -5 L -3.15625 -3.96875 L -2.171875 -6.28125 C -2.128906 -6.363281 -2.066406 -6.421875 -1.984375 -6.453125 C -1.898438 -6.492188 -1.816406 -6.492188 -1.734375 -6.453125 L -1.515625 -6.359375 C -1.429688 -6.328125 -1.375 -6.265625 -1.34375 -6.171875 C -1.3125 -6.085938 -1.316406 -6.003906 -1.359375 -5.921875 L -2.34375 -3.609375 L 0.109375 -2.578125 L 0.46875 -3.421875 C 0.5625 -3.640625 0.703125 -3.707031 0.890625 -3.625 L 1.15625 -3.515625 C 1.34375 -3.429688 1.390625 -3.28125 1.296875 -3.0625 L 0.421875 -1 C 0.328125 -0.757812 0.1875 -0.679688 0 -0.765625 L -0.265625 -0.875 C -0.453125 -0.957031 -0.5 -1.117188 -0.40625 -1.359375 L -0.28125 -1.640625 L -6 -4.0625 L -6.125 -3.78125 C -6.21875 -3.539062 -6.351562 -3.457031 -6.53125 -3.53125 L -6.8125 -3.65625 C -6.988281 -3.726562 -7.03125 -3.882812 -6.9375 -4.125 Z M -4.96875 -8.765625 "/></g></g></g><g fill="#3b3b3b" fill-opacity="1"><g transform="translate(146.300441, 143.711828)"><g><path d="M -2.578125 -10.609375 C -2.429688 -10.816406 -2.273438 -10.863281 -2.109375 -10.75 L -1.859375 -10.59375 C -1.691406 -10.476562 -1.679688 -10.316406 -1.828125 -10.109375 L -1.984375 -9.859375 L 1.1875 -7.765625 C 2.101562 -7.148438 2.664062 -6.472656 2.875 -5.734375 C 3.09375 -4.992188 2.9375 -4.222656 2.40625 -3.421875 C 1.875 -2.628906 1.238281 -2.175781 0.5 -2.0625 C -0.238281 -1.957031 -1.050781 -2.195312 -1.9375 -2.78125 L -5.234375 -4.96875 L -5.390625 -4.71875 C -5.535156 -4.507812 -5.691406 -4.460938 -5.859375 -4.578125 L -6.109375 -4.734375 C -6.273438 -4.847656 -6.285156 -5.007812 -6.140625 -5.21875 L -5.25 -6.578125 C -5.113281 -6.785156 -4.960938 -6.832031 -4.796875 -6.71875 L -4.546875 -6.5625 C -4.378906 -6.445312 -4.363281 -6.285156 -4.5 -6.078125 L -4.65625 -5.828125 L -1.359375 -3.640625 C -0.679688 -3.191406 -0.101562 -2.988281 0.375 -3.03125 C 0.851562 -3.082031 1.273438 -3.378906 1.640625 -3.921875 C 2.003906 -4.472656 2.097656 -4.988281 1.921875 -5.46875 C 1.753906 -5.945312 1.316406 -6.425781 0.609375 -6.90625 L -2.5625 -9 L -2.71875 -8.75 C -2.851562 -8.539062 -3.003906 -8.492188 -3.171875 -8.609375 L -3.421875 -8.765625 C -3.585938 -8.878906 -3.601562 -9.039062 -3.46875 -9.25 Z M -2.578125 -10.609375 "/></g></g></g><g fill="#3b3b3b" fill-opacity="1"><g transform="translate(151.334017, 136.21781)"><g><path d="M -0.328125 -11.015625 C -0.148438 -11.191406 0.00390625 -11.210938 0.140625 -11.078125 L 0.359375 -10.859375 C 0.492188 -10.722656 0.472656 -10.566406 0.296875 -10.390625 L 0.09375 -10.171875 L 4.84375 -5.453125 C 4.925781 -5.367188 4.96875 -5.269531 4.96875 -5.15625 C 4.976562 -5.050781 4.9375 -4.957031 4.84375 -4.875 L 4.578125 -4.59375 C 4.492188 -4.507812 4.382812 -4.476562 4.25 -4.5 L -2.78125 -6.046875 L 1 -2.296875 L 1.203125 -2.5 C 1.378906 -2.675781 1.539062 -2.691406 1.6875 -2.546875 L 1.890625 -2.34375 C 2.035156 -2.195312 2.019531 -2.035156 1.84375 -1.859375 L 0.765625 -0.78125 C 0.585938 -0.59375 0.425781 -0.570312 0.28125 -0.71875 L 0.078125 -0.921875 C -0.0664062 -1.066406 -0.0507812 -1.234375 0.125 -1.421875 L 0.34375 -1.625 L -4.0625 -6 L -4.28125 -5.796875 C -4.457031 -5.609375 -4.613281 -5.582031 -4.75 -5.71875 L -4.96875 -5.9375 C -5.101562 -6.070312 -5.082031 -6.234375 -4.90625 -6.421875 L -4.140625 -7.1875 C -4.054688 -7.269531 -3.945312 -7.304688 -3.8125 -7.296875 L 3.21875 -5.75 L -0.578125 -9.515625 L -0.796875 -9.296875 C -0.960938 -9.117188 -1.113281 -9.097656 -1.25 -9.234375 L -1.46875 -9.453125 C -1.601562 -9.585938 -1.585938 -9.742188 -1.421875 -9.921875 Z M -0.328125 -11.015625 "/></g></g></g><g fill="#3b3b3b" fill-opacity="1"><g transform="translate(157.9466, 129.734925)"><g><path d="M 4.03125 -5.3125 C 4.113281 -5.363281 4.195312 -5.378906 4.28125 -5.359375 C 4.363281 -5.347656 4.4375 -5.289062 4.5 -5.1875 L 5.234375 -4.125 C 5.296875 -4.019531 5.316406 -3.90625 5.296875 -3.78125 C 5.273438 -3.65625 5.207031 -3.554688 5.09375 -3.484375 L 0.90625 -0.625 C 0.6875 -0.46875 0.519531 -0.476562 0.40625 -0.65625 L 0.25 -0.875 C 0.125 -1.050781 0.171875 -1.21875 0.390625 -1.375 L 0.625 -1.53125 L -2.875 -6.65625 L -3.109375 -6.5 C -3.328125 -6.34375 -3.492188 -6.34375 -3.609375 -6.5 L -3.765625 -6.75 C -3.878906 -6.914062 -3.828125 -7.078125 -3.609375 -7.234375 L 0.546875 -10.0625 C 0.640625 -10.132812 0.742188 -10.15625 0.859375 -10.125 C 0.984375 -10.101562 1.082031 -10.039062 1.15625 -9.9375 L 1.765625 -9.0625 C 1.898438 -8.851562 1.882812 -8.691406 1.71875 -8.578125 L 1.46875 -8.421875 C 1.3125 -8.304688 1.164062 -8.351562 1.03125 -8.5625 L 0.671875 -9.078125 L -2.03125 -7.234375 L -0.609375 -5.15625 L 1.46875 -6.578125 C 1.539062 -6.628906 1.625 -6.644531 1.71875 -6.625 C 1.8125 -6.613281 1.882812 -6.566406 1.9375 -6.484375 L 2.0625 -6.296875 C 2.113281 -6.222656 2.128906 -6.140625 2.109375 -6.046875 C 2.097656 -5.953125 2.054688 -5.878906 1.984375 -5.828125 L -0.09375 -4.40625 L 1.46875 -2.109375 L 4.21875 -3.984375 L 3.75 -4.671875 C 3.613281 -4.867188 3.628906 -5.023438 3.796875 -5.140625 Z M 4.03125 -5.3125 "/></g></g></g><g fill="#3b3b3b" fill-opacity="1"><g transform="translate(164.690422, 125.170993)"><g><path d="M 6.140625 -3.71875 C 6.242188 -3.757812 6.335938 -3.769531 6.421875 -3.75 C 6.515625 -3.738281 6.582031 -3.6875 6.625 -3.59375 L 6.734375 -3.328125 C 6.816406 -3.140625 6.742188 -2.992188 6.515625 -2.890625 L 5.640625 -2.5 C 5.523438 -2.445312 5.414062 -2.460938 5.3125 -2.546875 L 3.296875 -3.90625 C 2.953125 -4.144531 2.695312 -4.300781 2.53125 -4.375 C 2.375 -4.445312 2.222656 -4.46875 2.078125 -4.4375 C 1.929688 -4.414062 1.710938 -4.34375 1.421875 -4.21875 L 0.875 -3.96875 L 1.828125 -1.796875 L 2.09375 -1.921875 C 2.332031 -2.023438 2.5 -1.984375 2.59375 -1.796875 L 2.703125 -1.53125 C 2.785156 -1.34375 2.707031 -1.195312 2.46875 -1.09375 L 1 -0.4375 C 0.757812 -0.332031 0.597656 -0.375 0.515625 -0.5625 L 0.40625 -0.828125 C 0.3125 -1.015625 0.382812 -1.160156 0.625 -1.265625 L 0.890625 -1.390625 L -1.625 -7.0625 L -1.890625 -6.9375 C -2.128906 -6.832031 -2.285156 -6.867188 -2.359375 -7.046875 L -2.484375 -7.328125 C -2.566406 -7.503906 -2.488281 -7.644531 -2.25 -7.75 L 0.09375 -8.796875 C 1.925781 -9.609375 3.140625 -9.347656 3.734375 -8.015625 C 3.972656 -7.472656 4.023438 -6.953125 3.890625 -6.453125 C 3.765625 -5.960938 3.472656 -5.53125 3.015625 -5.15625 C 3.253906 -5.125 3.546875 -4.984375 3.890625 -4.734375 L 5.671875 -3.515625 Z M 1.65625 -5.3125 C 2.257812 -5.582031 2.648438 -5.898438 2.828125 -6.265625 C 3.015625 -6.640625 3 -7.070312 2.78125 -7.5625 C 2.59375 -7.988281 2.3125 -8.234375 1.9375 -8.296875 C 1.5625 -8.359375 1.054688 -8.25 0.421875 -7.96875 L -0.6875 -7.46875 L 0.5 -4.796875 Z M 1.65625 -5.3125 "/></g></g></g><g fill="#3b3b3b" fill-opacity="1"><g transform="translate(172.610874, 121.690351)"><g><path d="M 7.4375 -2.625 C 7.675781 -2.675781 7.820312 -2.597656 7.875 -2.390625 L 7.9375 -2.125 C 7.976562 -1.914062 7.878906 -1.785156 7.640625 -1.734375 L 6.015625 -1.359375 C 5.765625 -1.304688 5.617188 -1.382812 5.578125 -1.59375 L 5.515625 -1.859375 C 5.460938 -2.066406 5.5625 -2.195312 5.8125 -2.25 L 6.109375 -2.328125 L 5.09375 -3.796875 L 2.109375 -3.125 L 1.875 -1.359375 L 2.15625 -1.421875 C 2.40625 -1.484375 2.554688 -1.410156 2.609375 -1.203125 L 2.671875 -0.9375 C 2.710938 -0.726562 2.609375 -0.59375 2.359375 -0.53125 L 0.84375 -0.1875 C 0.59375 -0.132812 0.445312 -0.210938 0.40625 -0.421875 L 0.34375 -0.6875 C 0.289062 -0.894531 0.390625 -1.023438 0.640625 -1.078125 L 0.921875 -1.140625 L 1.953125 -8.390625 C 1.972656 -8.472656 2.007812 -8.539062 2.0625 -8.59375 C 2.125 -8.65625 2.191406 -8.695312 2.265625 -8.71875 L 2.609375 -8.78125 C 2.679688 -8.800781 2.753906 -8.800781 2.828125 -8.78125 C 2.898438 -8.757812 2.957031 -8.710938 3 -8.640625 L 7.140625 -2.5625 Z M 4.5625 -4.59375 L 2.703125 -7.375 L 2.25 -4.078125 Z M 4.5625 -4.59375 "/></g></g></g><g fill="#3b3b3b" fill-opacity="1"><g transform="translate(181.783059, 119.75745)"><g><path d="M 5.953125 -2.34375 C 6.046875 -2.34375 6.117188 -2.3125 6.171875 -2.25 C 6.234375 -2.1875 6.269531 -2.097656 6.28125 -1.984375 L 6.328125 -0.703125 C 6.328125 -0.578125 6.285156 -0.46875 6.203125 -0.375 C 6.117188 -0.28125 6.007812 -0.234375 5.875 -0.234375 L 1.09375 -0.046875 C 0.832031 -0.0351562 0.695312 -0.132812 0.6875 -0.34375 L 0.6875 -0.625 C 0.675781 -0.832031 0.800781 -0.941406 1.0625 -0.953125 L 1.359375 -0.953125 L 1.109375 -7.15625 L 0.8125 -7.15625 C 0.550781 -7.144531 0.421875 -7.238281 0.421875 -7.4375 L 0.40625 -7.734375 C 0.394531 -7.929688 0.519531 -8.035156 0.78125 -8.046875 L 2.921875 -8.125 C 3.171875 -8.132812 3.300781 -8.039062 3.3125 -7.84375 L 3.328125 -7.546875 C 3.328125 -7.347656 3.203125 -7.242188 2.953125 -7.234375 L 2.125 -7.203125 L 2.375 -1 L 5.40625 -1.125 L 5.375 -1.953125 C 5.363281 -2.203125 5.457031 -2.328125 5.65625 -2.328125 Z M 5.953125 -2.34375 "/></g></g></g><g fill="#3b3b3b" fill-opacity="1"><g transform="translate(189.597368, 119.631758)"><g/></g></g><g fill="#3b3b3b" fill-opacity="1"><g transform="translate(193.612605, 119.912946)"><g><path d="M 5.3125 -7 C 6.28125 -6.78125 6.96875 -6.425781 7.375 -5.9375 C 7.78125 -5.445312 7.898438 -4.828125 7.734375 -4.078125 C 7.554688 -3.316406 7.148438 -2.78125 6.515625 -2.46875 C 5.878906 -2.15625 5.082031 -2.109375 4.125 -2.328125 L 3.046875 -2.5625 L 2.546875 -0.359375 L 2.84375 -0.296875 C 3.09375 -0.242188 3.191406 -0.113281 3.140625 0.09375 L 3.078125 0.359375 C 3.035156 0.566406 2.890625 0.644531 2.640625 0.59375 L 1.0625 0.234375 C 0.8125 0.179688 0.707031 0.0507812 0.75 -0.15625 L 0.8125 -0.421875 C 0.863281 -0.628906 1.015625 -0.707031 1.265625 -0.65625 L 1.5625 -0.578125 L 2.921875 -6.625 L 2.625 -6.703125 C 2.375 -6.753906 2.269531 -6.875 2.3125 -7.0625 L 2.375 -7.359375 C 2.414062 -7.546875 2.5625 -7.613281 2.8125 -7.5625 Z M 4.234375 -3.234375 C 4.984375 -3.066406 5.550781 -3.0625 5.9375 -3.21875 C 6.320312 -3.382812 6.578125 -3.738281 6.703125 -4.28125 C 6.804688 -4.769531 6.734375 -5.164062 6.484375 -5.46875 C 6.234375 -5.769531 5.769531 -5.992188 5.09375 -6.140625 L 3.90625 -6.40625 L 3.234375 -3.453125 Z M 4.234375 -3.234375 "/></g></g></g><g fill="#3b3b3b" fill-opacity="1"><g transform="translate(201.398217, 121.665251)"><g><path d="M 7.546875 2.28125 C 7.773438 2.382812 7.847656 2.53125 7.765625 2.71875 L 7.65625 2.984375 C 7.570312 3.171875 7.414062 3.210938 7.1875 3.109375 L 5.65625 2.453125 C 5.414062 2.347656 5.335938 2.203125 5.421875 2.015625 L 5.53125 1.75 C 5.613281 1.5625 5.773438 1.519531 6.015625 1.625 L 6.296875 1.75 L 6.359375 -0.046875 L 3.546875 -1.265625 L 2.3125 0.015625 L 2.578125 0.140625 C 2.804688 0.234375 2.878906 0.375 2.796875 0.5625 L 2.6875 0.828125 C 2.601562 1.015625 2.445312 1.0625 2.21875 0.96875 L 0.78125 0.34375 C 0.550781 0.238281 0.476562 0.09375 0.5625 -0.09375 L 0.671875 -0.359375 C 0.753906 -0.546875 0.910156 -0.585938 1.140625 -0.484375 L 1.421875 -0.375 L 6.53125 -5.609375 C 6.59375 -5.660156 6.664062 -5.695312 6.75 -5.71875 C 6.832031 -5.738281 6.910156 -5.734375 6.984375 -5.703125 L 7.296875 -5.5625 C 7.367188 -5.53125 7.425781 -5.476562 7.46875 -5.40625 C 7.519531 -5.34375 7.535156 -5.269531 7.515625 -5.1875 L 7.265625 2.171875 Z M 6.40625 -1.03125 L 6.53125 -4.34375 L 4.234375 -1.96875 Z M 6.40625 -1.03125 "/></g></g></g><g fill="#3b3b3b" fill-opacity="1"><g transform="translate(209.929539, 125.473778)"><g><path d="M 6.375 3.296875 C 6.46875 3.359375 6.523438 3.429688 6.546875 3.515625 C 6.578125 3.597656 6.566406 3.6875 6.515625 3.78125 L 6.34375 4.015625 C 6.226562 4.179688 6.066406 4.191406 5.859375 4.046875 L 5.078125 3.5 C 4.972656 3.425781 4.925781 3.320312 4.9375 3.1875 L 5.046875 0.765625 C 5.078125 0.347656 5.082031 0.0546875 5.0625 -0.109375 C 5.039062 -0.273438 4.976562 -0.414062 4.875 -0.53125 C 4.78125 -0.65625 4.601562 -0.804688 4.34375 -0.984375 L 3.84375 -1.34375 L 2.5 0.609375 L 2.734375 0.78125 C 2.953125 0.925781 3.003906 1.085938 2.890625 1.265625 L 2.71875 1.5 C 2.601562 1.664062 2.4375 1.675781 2.21875 1.53125 L 0.90625 0.625 C 0.6875 0.476562 0.632812 0.320312 0.75 0.15625 L 0.921875 -0.078125 C 1.035156 -0.253906 1.203125 -0.269531 1.421875 -0.125 L 1.65625 0.046875 L 5.171875 -5.0625 L 4.9375 -5.234375 C 4.71875 -5.378906 4.664062 -5.53125 4.78125 -5.6875 L 4.953125 -5.9375 C 5.066406 -6.09375 5.234375 -6.097656 5.453125 -5.953125 L 7.5625 -4.5 C 9.207031 -3.363281 9.613281 -2.195312 8.78125 -1 C 8.445312 -0.507812 8.03125 -0.191406 7.53125 -0.046875 C 7.039062 0.0976562 6.519531 0.0703125 5.96875 -0.125 C 6.070312 0.09375 6.101562 0.414062 6.0625 0.84375 L 5.953125 3 Z M 5.390625 -1.375 C 5.941406 -0.988281 6.421875 -0.8125 6.828125 -0.84375 C 7.242188 -0.882812 7.601562 -1.128906 7.90625 -1.578125 C 8.175781 -1.960938 8.238281 -2.328125 8.09375 -2.671875 C 7.945312 -3.023438 7.585938 -3.398438 7.015625 -3.796875 L 6.015625 -4.5 L 4.359375 -2.09375 Z M 5.390625 -1.375 "/></g></g></g><g fill="#3b3b3b" fill-opacity="1"><g transform="translate(217.029191, 130.507189)"><g><path d="M 5.765625 2.75 C 5.835938 2.8125 5.867188 2.882812 5.859375 2.96875 C 5.847656 3.0625 5.800781 3.148438 5.71875 3.234375 L 4.8125 4.140625 C 4.726562 4.234375 4.625 4.28125 4.5 4.28125 C 4.375 4.28125 4.265625 4.234375 4.171875 4.140625 L 0.78125 0.765625 C 0.59375 0.585938 0.570312 0.425781 0.71875 0.28125 L 0.921875 0.078125 C 1.066406 -0.0664062 1.234375 -0.0507812 1.421875 0.125 L 1.625 0.34375 L 5.984375 -4.0625 L 5.78125 -4.28125 C 5.59375 -4.457031 5.570312 -4.617188 5.71875 -4.765625 L 5.921875 -4.96875 C 6.054688 -5.113281 6.21875 -5.097656 6.40625 -4.921875 L 7.921875 -3.40625 C 8.097656 -3.226562 8.117188 -3.066406 7.984375 -2.921875 L 7.78125 -2.71875 C 7.632812 -2.570312 7.472656 -2.585938 7.296875 -2.765625 L 6.703125 -3.359375 L 2.34375 1.046875 L 4.5 3.1875 L 5.078125 2.59375 C 5.253906 2.414062 5.414062 2.394531 5.5625 2.53125 Z M 5.765625 2.75 "/></g></g></g><g fill="#3b3b3b" fill-opacity="1"><g transform="translate(222.465187, 135.873608)"><g><path d="M 2.34375 3.578125 C 1.9375 2.992188 1.71875 2.394531 1.6875 1.78125 C 1.65625 1.164062 1.804688 0.570312 2.140625 0 C 2.484375 -0.570312 2.992188 -1.09375 3.671875 -1.5625 C 4.359375 -2.039062 5.046875 -2.335938 5.734375 -2.453125 C 6.421875 -2.578125 7.066406 -2.515625 7.671875 -2.265625 C 8.273438 -2.015625 8.785156 -1.585938 9.203125 -0.984375 C 9.609375 -0.398438 9.820312 0.195312 9.84375 0.8125 C 9.875 1.4375 9.722656 2.035156 9.390625 2.609375 C 9.066406 3.179688 8.570312 3.703125 7.90625 4.171875 C 7.207031 4.648438 6.507812 4.945312 5.8125 5.0625 C 5.113281 5.175781 4.460938 5.109375 3.859375 4.859375 C 3.265625 4.609375 2.757812 4.179688 2.34375 3.578125 Z M 3.09375 3.0625 C 3.5625 3.738281 4.160156 4.097656 4.890625 4.140625 C 5.617188 4.179688 6.414062 3.898438 7.28125 3.296875 C 8.101562 2.734375 8.613281 2.125 8.8125 1.46875 C 9.019531 0.820312 8.898438 0.175781 8.453125 -0.46875 C 7.984375 -1.144531 7.382812 -1.503906 6.65625 -1.546875 C 5.925781 -1.585938 5.128906 -1.304688 4.265625 -0.703125 C 3.429688 -0.128906 2.914062 0.476562 2.71875 1.125 C 2.519531 1.769531 2.644531 2.414062 3.09375 3.0625 Z M 3.09375 3.0625 "/></g></g></g><g fill="#3b3b3b" fill-opacity="1"><g transform="translate(227.713551, 143.627925)"><g><path d="M 3.671875 6.171875 C 3.710938 6.273438 3.722656 6.367188 3.703125 6.453125 C 3.691406 6.535156 3.640625 6.597656 3.546875 6.640625 L 3.28125 6.75 C 3.09375 6.832031 2.945312 6.757812 2.84375 6.53125 L 2.46875 5.65625 C 2.414062 5.539062 2.425781 5.429688 2.5 5.328125 L 3.875 3.328125 C 4.113281 2.972656 4.269531 2.71875 4.34375 2.5625 C 4.414062 2.40625 4.441406 2.25 4.421875 2.09375 C 4.410156 1.945312 4.34375 1.734375 4.21875 1.453125 L 3.96875 0.890625 L 1.78125 1.84375 L 1.90625 2.125 C 2.007812 2.363281 1.96875 2.523438 1.78125 2.609375 L 1.515625 2.71875 C 1.328125 2.800781 1.179688 2.722656 1.078125 2.484375 L 0.4375 1 C 0.332031 0.757812 0.375 0.597656 0.5625 0.515625 L 0.828125 0.40625 C 1.015625 0.320312 1.160156 0.398438 1.265625 0.640625 L 1.390625 0.921875 L 7.078125 -1.5625 L 6.953125 -1.84375 C 6.847656 -2.082031 6.890625 -2.238281 7.078125 -2.3125 L 7.34375 -2.4375 C 7.519531 -2.507812 7.660156 -2.425781 7.765625 -2.1875 L 8.78125 0.171875 C 9.582031 2.015625 9.316406 3.226562 7.984375 3.8125 C 7.441406 4.039062 6.921875 4.085938 6.421875 3.953125 C 5.929688 3.816406 5.5 3.515625 5.125 3.046875 C 5.09375 3.296875 4.953125 3.585938 4.703125 3.921875 L 3.46875 5.703125 Z M 5.3125 1.6875 C 5.570312 2.300781 5.882812 2.695312 6.25 2.875 C 6.613281 3.0625 7.039062 3.046875 7.53125 2.828125 C 7.96875 2.640625 8.21875 2.359375 8.28125 1.984375 C 8.34375 1.617188 8.238281 1.117188 7.96875 0.484375 L 7.46875 -0.640625 L 4.796875 0.53125 Z M 5.3125 1.6875 "/></g></g></g><g fill="#e18cad" fill-opacity="1"><g transform="translate(155.703475, 221.617559)"><g><path d="M 4.4375 -1.546875 C 4.507812 -1.546875 4.5625 -1.519531 4.59375 -1.46875 C 4.632812 -1.425781 4.65625 -1.359375 4.65625 -1.265625 L 4.65625 -0.328125 C 4.65625 -0.234375 4.625 -0.15625 4.5625 -0.09375 C 4.5 -0.03125 4.421875 0 4.328125 0 L 0.796875 0 C 0.609375 0 0.515625 -0.078125 0.515625 -0.234375 L 0.515625 -0.4375 C 0.515625 -0.59375 0.609375 -0.671875 0.796875 -0.671875 L 1.015625 -0.671875 L 1.015625 -5.21875 L 0.796875 -5.21875 C 0.609375 -5.21875 0.515625 -5.296875 0.515625 -5.453125 L 0.515625 -5.65625 C 0.515625 -5.8125 0.609375 -5.890625 0.796875 -5.890625 L 2.375 -5.890625 C 2.5625 -5.890625 2.65625 -5.8125 2.65625 -5.65625 L 2.65625 -5.453125 C 2.65625 -5.296875 2.5625 -5.21875 2.375 -5.21875 L 1.78125 -5.21875 L 1.78125 -0.671875 L 4 -0.671875 L 4 -1.265625 C 4 -1.453125 4.070312 -1.546875 4.21875 -1.546875 Z M 4.4375 -1.546875 "/></g></g></g><g fill="#e18cad" fill-opacity="1"><g transform="translate(163.064848, 221.617559)"><g><path d="M 5.75 -0.671875 C 5.9375 -0.671875 6.03125 -0.59375 6.03125 -0.4375 L 6.03125 -0.234375 C 6.03125 -0.078125 5.9375 0 5.75 0 L 4.53125 0 C 4.34375 0 4.25 -0.078125 4.25 -0.234375 L 4.25 -0.4375 C 4.25 -0.59375 4.34375 -0.671875 4.53125 -0.671875 L 4.75 -0.671875 L 4.265625 -1.90625 L 2.03125 -1.90625 L 1.5625 -0.671875 L 1.78125 -0.671875 C 1.96875 -0.671875 2.0625 -0.59375 2.0625 -0.4375 L 2.0625 -0.234375 C 2.0625 -0.078125 1.96875 0 1.78125 0 L 0.625 0 C 0.445312 0 0.359375 -0.078125 0.359375 -0.234375 L 0.359375 -0.4375 C 0.359375 -0.59375 0.445312 -0.671875 0.625 -0.671875 L 0.84375 -0.671875 L 2.765625 -5.6875 C 2.785156 -5.75 2.820312 -5.796875 2.875 -5.828125 C 2.925781 -5.867188 2.984375 -5.890625 3.046875 -5.890625 L 3.296875 -5.890625 C 3.347656 -5.890625 3.398438 -5.867188 3.453125 -5.828125 C 3.503906 -5.796875 3.539062 -5.753906 3.5625 -5.703125 L 5.53125 -0.671875 Z M 4.015625 -2.5625 L 3.140625 -4.84375 L 2.28125 -2.5625 Z M 4.015625 -2.5625 "/></g></g></g><g fill="#e18cad" fill-opacity="1"><g transform="translate(171.713414, 221.617559)"><g><path d="M 5.453125 -0.671875 C 5.628906 -0.671875 5.71875 -0.59375 5.71875 -0.4375 L 5.71875 -0.234375 C 5.71875 -0.078125 5.628906 0 5.453125 0 L 3.90625 0 C 3.71875 0 3.625 -0.078125 3.625 -0.234375 L 3.625 -0.4375 C 3.625 -0.59375 3.71875 -0.671875 3.90625 -0.671875 L 4.046875 -0.671875 L 1.78125 -2.875 L 1.78125 -0.671875 L 2 -0.671875 C 2.175781 -0.671875 2.265625 -0.59375 2.265625 -0.4375 L 2.265625 -0.234375 C 2.265625 -0.078125 2.175781 0 2 0 L 0.796875 0 C 0.609375 0 0.515625 -0.078125 0.515625 -0.234375 L 0.515625 -0.4375 C 0.515625 -0.59375 0.609375 -0.671875 0.796875 -0.671875 L 1.015625 -0.671875 L 1.015625 -5.21875 L 0.796875 -5.21875 C 0.609375 -5.21875 0.515625 -5.296875 0.515625 -5.453125 L 0.515625 -5.65625 C 0.515625 -5.8125 0.609375 -5.890625 0.796875 -5.890625 L 2 -5.890625 C 2.175781 -5.890625 2.265625 -5.8125 2.265625 -5.65625 L 2.265625 -5.453125 C 2.265625 -5.296875 2.175781 -5.21875 2 -5.21875 L 1.78125 -5.21875 L 1.78125 -3.140625 L 4.0625 -5.21875 L 3.90625 -5.21875 C 3.71875 -5.21875 3.625 -5.296875 3.625 -5.453125 L 3.625 -5.65625 C 3.625 -5.738281 3.640625 -5.796875 3.671875 -5.828125 C 3.710938 -5.867188 3.773438 -5.890625 3.859375 -5.890625 L 5.328125 -5.890625 C 5.503906 -5.890625 5.59375 -5.8125 5.59375 -5.65625 L 5.59375 -5.453125 C 5.59375 -5.296875 5.503906 -5.21875 5.328125 -5.21875 L 5 -5.21875 L 2.578125 -3.0625 L 5.0625 -0.671875 Z M 5.453125 -0.671875 "/></g></g></g><g fill="#e18cad" fill-opacity="1"><g transform="translate(180.117999, 221.617559)"><g><path d="M 4.65625 -1.5625 C 4.726562 -1.5625 4.78125 -1.535156 4.8125 -1.484375 C 4.851562 -1.429688 4.875 -1.363281 4.875 -1.28125 L 4.875 -0.328125 C 4.875 -0.234375 4.84375 -0.15625 4.78125 -0.09375 C 4.71875 -0.03125 4.640625 0 4.546875 0 L 0.796875 0 C 0.609375 0 0.515625 -0.078125 0.515625 -0.234375 L 0.515625 -0.4375 C 0.515625 -0.59375 0.609375 -0.671875 0.796875 -0.671875 L 1.015625 -0.671875 L 1.015625 -5.21875 L 0.796875 -5.21875 C 0.609375 -5.21875 0.515625 -5.296875 0.515625 -5.453125 L 0.515625 -5.65625 C 0.515625 -5.8125 0.609375 -5.890625 0.796875 -5.890625 L 4.5 -5.890625 C 4.59375 -5.890625 4.671875 -5.851562 4.734375 -5.78125 C 4.796875 -5.71875 4.828125 -5.640625 4.828125 -5.546875 L 4.828125 -4.765625 C 4.828125 -4.578125 4.753906 -4.484375 4.609375 -4.484375 L 4.390625 -4.484375 C 4.242188 -4.484375 4.171875 -4.578125 4.171875 -4.765625 L 4.171875 -5.21875 L 1.78125 -5.21875 L 1.78125 -3.375 L 3.625 -3.375 C 3.6875 -3.375 3.738281 -3.347656 3.78125 -3.296875 C 3.832031 -3.253906 3.859375 -3.203125 3.859375 -3.140625 L 3.859375 -2.953125 C 3.859375 -2.890625 3.832031 -2.832031 3.78125 -2.78125 C 3.738281 -2.738281 3.6875 -2.71875 3.625 -2.71875 L 1.78125 -2.71875 L 1.78125 -0.671875 L 4.21875 -0.671875 L 4.21875 -1.28125 C 4.21875 -1.46875 4.289062 -1.5625 4.4375 -1.5625 Z M 4.65625 -1.5625 "/></g></g></g><g fill="#e18cad" fill-opacity="1"><g transform="translate(187.849544, 221.617559)"><g><path d="M 5.59375 -5.890625 C 5.78125 -5.890625 5.875 -5.8125 5.875 -5.65625 L 5.875 -5.453125 C 5.875 -5.296875 5.78125 -5.21875 5.59375 -5.21875 L 5.375 -5.21875 L 3.5 -0.1875 C 3.457031 -0.0625 3.367188 0 3.234375 0 L 2.984375 0 C 2.847656 0 2.757812 -0.0625 2.71875 -0.1875 L 0.84375 -5.21875 L 0.625 -5.21875 C 0.445312 -5.21875 0.359375 -5.296875 0.359375 -5.453125 L 0.359375 -5.65625 C 0.359375 -5.8125 0.445312 -5.890625 0.625 -5.890625 L 1.84375 -5.890625 C 2.03125 -5.890625 2.125 -5.8125 2.125 -5.65625 L 2.125 -5.453125 C 2.125 -5.296875 2.03125 -5.21875 1.84375 -5.21875 L 1.625 -5.21875 L 3.140625 -1.078125 L 4.65625 -5.21875 L 4.4375 -5.21875 C 4.257812 -5.21875 4.171875 -5.296875 4.171875 -5.453125 L 4.171875 -5.65625 C 4.171875 -5.8125 4.257812 -5.890625 4.4375 -5.890625 Z M 5.59375 -5.890625 "/></g></g></g><g fill="#e18cad" fill-opacity="1"><g transform="translate(196.338266, 221.617559)"><g><path d="M 0.796875 0 C 0.609375 0 0.515625 -0.078125 0.515625 -0.234375 L 0.515625 -0.4375 C 0.515625 -0.59375 0.609375 -0.671875 0.796875 -0.671875 L 1.015625 -0.671875 L 1.015625 -5.21875 L 0.796875 -5.21875 C 0.609375 -5.21875 0.515625 -5.296875 0.515625 -5.453125 L 0.515625 -5.65625 C 0.515625 -5.8125 0.609375 -5.890625 0.796875 -5.890625 L 2 -5.890625 C 2.175781 -5.890625 2.265625 -5.8125 2.265625 -5.65625 L 2.265625 -5.453125 C 2.265625 -5.296875 2.175781 -5.21875 2 -5.21875 L 1.78125 -5.21875 L 1.78125 -0.671875 L 2 -0.671875 C 2.175781 -0.671875 2.265625 -0.59375 2.265625 -0.4375 L 2.265625 -0.234375 C 2.265625 -0.078125 2.175781 0 2 0 Z M 0.796875 0 "/></g></g></g><g fill="#e18cad" fill-opacity="1"><g transform="translate(201.39447, 221.617559)"><g><path d="M 4.65625 -1.5625 C 4.726562 -1.5625 4.78125 -1.535156 4.8125 -1.484375 C 4.851562 -1.429688 4.875 -1.363281 4.875 -1.28125 L 4.875 -0.328125 C 4.875 -0.234375 4.84375 -0.15625 4.78125 -0.09375 C 4.71875 -0.03125 4.640625 0 4.546875 0 L 0.796875 0 C 0.609375 0 0.515625 -0.078125 0.515625 -0.234375 L 0.515625 -0.4375 C 0.515625 -0.59375 0.609375 -0.671875 0.796875 -0.671875 L 1.015625 -0.671875 L 1.015625 -5.21875 L 0.796875 -5.21875 C 0.609375 -5.21875 0.515625 -5.296875 0.515625 -5.453125 L 0.515625 -5.65625 C 0.515625 -5.8125 0.609375 -5.890625 0.796875 -5.890625 L 4.5 -5.890625 C 4.59375 -5.890625 4.671875 -5.851562 4.734375 -5.78125 C 4.796875 -5.71875 4.828125 -5.640625 4.828125 -5.546875 L 4.828125 -4.765625 C 4.828125 -4.578125 4.753906 -4.484375 4.609375 -4.484375 L 4.390625 -4.484375 C 4.242188 -4.484375 4.171875 -4.578125 4.171875 -4.765625 L 4.171875 -5.21875 L 1.78125 -5.21875 L 1.78125 -3.375 L 3.625 -3.375 C 3.6875 -3.375 3.738281 -3.347656 3.78125 -3.296875 C 3.832031 -3.253906 3.859375 -3.203125 3.859375 -3.140625 L 3.859375 -2.953125 C 3.859375 -2.890625 3.832031 -2.832031 3.78125 -2.78125 C 3.738281 -2.738281 3.6875 -2.71875 3.625 -2.71875 L 1.78125 -2.71875 L 1.78125 -0.671875 L 4.21875 -0.671875 L 4.21875 -1.28125 C 4.21875 -1.46875 4.289062 -1.5625 4.4375 -1.5625 Z M 4.65625 -1.5625 "/></g></g></g><g fill="#e18cad" fill-opacity="1"><g transform="translate(209.126012, 221.617559)"><g><path d="M 8.21875 -5.890625 C 8.40625 -5.890625 8.5 -5.8125 8.5 -5.65625 L 8.5 -5.453125 C 8.5 -5.296875 8.40625 -5.21875 8.21875 -5.21875 L 8 -5.21875 L 6.546875 -0.1875 C 6.523438 -0.125 6.488281 -0.078125 6.4375 -0.046875 C 6.382812 -0.015625 6.328125 0 6.265625 0 L 6.015625 0 C 5.878906 0 5.785156 -0.0625 5.734375 -0.1875 L 4.4375 -3.96875 L 3.109375 -0.1875 C 3.066406 -0.0625 2.972656 0 2.828125 0 L 2.578125 0 C 2.515625 0 2.457031 -0.015625 2.40625 -0.046875 C 2.363281 -0.078125 2.332031 -0.125 2.3125 -0.1875 L 0.84375 -5.21875 L 0.625 -5.21875 C 0.445312 -5.21875 0.359375 -5.296875 0.359375 -5.453125 L 0.359375 -5.65625 C 0.359375 -5.8125 0.445312 -5.890625 0.625 -5.890625 L 1.828125 -5.890625 C 2.015625 -5.890625 2.109375 -5.8125 2.109375 -5.65625 L 2.109375 -5.453125 C 2.109375 -5.296875 2.015625 -5.21875 1.828125 -5.21875 L 1.609375 -5.21875 L 2.78125 -1.203125 L 4.046875 -4.828125 C 4.066406 -4.890625 4.097656 -4.9375 4.140625 -4.96875 C 4.191406 -5.007812 4.25 -5.03125 4.3125 -5.03125 L 4.625 -5.03125 C 4.675781 -5.03125 4.722656 -5.007812 4.765625 -4.96875 C 4.816406 -4.9375 4.859375 -4.890625 4.890625 -4.828125 L 6.15625 -1.203125 L 7.3125 -5.21875 L 7.09375 -5.21875 C 6.90625 -5.21875 6.8125 -5.296875 6.8125 -5.453125 L 6.8125 -5.65625 C 6.8125 -5.8125 6.90625 -5.890625 7.09375 -5.890625 Z M 8.21875 -5.890625 "/></g></g></g></svg>