<svg xmlns="http://www.w3.org/2000/svg" xmlns:xlink="http://www.w3.org/1999/xlink" width="500" zoomAndPan="magnify" viewBox="0 0 375 374.999991" height="500" preserveAspectRatio="xMidYMid meet" version="1.0"><defs><g/><clipPath id="907c934893"><path d="M 127 80 L 265.75 80 L 265.75 227.820312 L 127 227.820312 Z M 127 80 " clip-rule="nonzero"/></clipPath><clipPath id="5dd2cb32d5"><path d="M 115.75 77.820312 L 221 77.820312 L 221 191 L 115.75 191 Z M 115.75 77.820312 " clip-rule="nonzero"/></clipPath></defs><g clip-path="url(#907c934893)"><path fill="#dda3b9" d="M 224.390625 149.378906 C 235.332031 142.332031 241.597656 151.074219 251.171875 155.175781 C 237.433594 158.238281 236.554688 169.234375 229.140625 178.492188 C 217.78125 192.683594 204.789062 199.0625 189.515625 194.546875 C 175.488281 217.785156 154.464844 215.957031 127.644531 193.363281 C 140.992188 214.089844 164.269531 227.820312 190.75 227.820312 C 232.164062 227.820312 265.75 194.234375 265.75 152.820312 C 265.75 124.355469 249.886719 99.589844 226.519531 86.886719 C 226.957031 84.601562 228.109375 82.511719 229.289062 80.425781 C 227.03125 81.960938 225.121094 83.605469 223.523438 85.34375 C 213.386719 96.378906 215.851562 111.1875 221.671875 124.921875 C 225.679688 134.367188 226.128906 142.328125 224.390625 149.378906 Z M 232.113281 150.914062 C 233.253906 150.914062 234.179688 151.839844 234.179688 152.980469 C 234.179688 154.125 233.253906 155.050781 232.113281 155.050781 C 230.972656 155.050781 230.046875 154.125 230.046875 152.980469 C 230.046875 151.839844 230.972656 150.914062 232.113281 150.914062 Z M 232.113281 150.914062 " fill-opacity="1" fill-rule="evenodd"/></g><g clip-path="url(#5dd2cb32d5)"><path fill="#dda3b9" d="M 190.914062 129.992188 C 193.429688 109.886719 202.664062 94.109375 220.902344 84.128906 C 211.675781 80.074219 201.476562 77.820312 190.75 77.820312 C 149.335938 77.820312 115.75 111.40625 115.75 152.820312 C 115.75 164.917969 118.617188 176.34375 123.703125 186.460938 C 121.691406 188.058594 119.445312 188.960938 117.164062 189.75 C 120.101562 190.152344 123.035156 190.445312 125.972656 190.636719 C 145.886719 191.929688 165.800781 188.460938 185.71875 180.957031 C 173.875 179.472656 163.449219 175.652344 156.9375 165.367188 C 160.277344 165.890625 163.523438 165.773438 166.730469 165.367188 C 153.59375 161.59375 147.527344 152.722656 145.84375 140.683594 C 148.800781 143.835938 152.890625 145.585938 158.636719 145.28125 C 144.59375 135.832031 141.324219 122.855469 141.949219 108.609375 C 153.1875 122.722656 166.757812 129.347656 183.605469 133.898438 C 197.976562 137.78125 210.0625 144.519531 214.699219 160.570312 C 217.984375 144.476562 207.878906 135.429688 190.914062 129.992188 Z M 190.914062 129.992188 " fill-opacity="1" fill-rule="evenodd"/></g><g fill="#ffffff" fill-opacity="1"><g transform="translate(89.422019, 269.184239)"><g><path d="M 2.59375 0 L 2.59375 -23.953125 L 9.0625 -23.953125 L 9.0625 -5.234375 L 18.28125 -5.234375 L 18.28125 0 Z M 2.59375 0 "/></g></g></g><g fill="#ffffff" fill-opacity="1"><g transform="translate(112.279478, 269.184239)"><g><path d="M 17.296875 0 L 16.109375 -4.484375 L 8.328125 -4.484375 L 7.109375 0 L 0 0 L 7.8125 -24.0625 L 16.453125 -24.0625 L 24.375 0 Z M 14.765625 -9.796875 L 13.734375 -13.734375 C 13.617188 -14.160156 13.457031 -14.769531 13.25 -15.5625 C 13.050781 -16.351562 12.847656 -17.171875 12.640625 -18.015625 C 12.441406 -18.859375 12.285156 -19.554688 12.171875 -20.109375 C 12.078125 -19.554688 11.9375 -18.878906 11.75 -18.078125 C 11.570312 -17.273438 11.390625 -16.476562 11.203125 -15.6875 C 11.015625 -14.90625 10.847656 -14.253906 10.703125 -13.734375 L 9.671875 -9.796875 Z M 14.765625 -9.796875 "/></g></g></g><g fill="#ffffff" fill-opacity="1"><g transform="translate(139.971374, 269.184239)"><g><path d="M 23.0625 0 L 15.75 0 L 11.015625 -9.15625 L 9.09375 -8.015625 L 9.09375 0 L 2.59375 0 L 2.59375 -23.953125 L 9.09375 -23.953125 L 9.09375 -13.546875 C 9.363281 -14.078125 9.675781 -14.601562 10.03125 -15.125 C 10.382812 -15.644531 10.734375 -16.144531 11.078125 -16.625 L 16.109375 -23.953125 L 23.1875 -23.953125 L 15.640625 -13.21875 Z M 23.0625 0 "/></g></g></g><g fill="#ffffff" fill-opacity="1"><g transform="translate(166.352242, 269.184239)"><g><path d="M 16.8125 0 L 2.59375 0 L 2.59375 -23.953125 L 16.8125 -23.953125 L 16.8125 -18.765625 L 9.0625 -18.765625 L 9.0625 -15 L 16.234375 -15 L 16.234375 -9.796875 L 9.0625 -9.796875 L 9.0625 -5.28125 L 16.8125 -5.28125 Z M 16.8125 0 "/></g></g></g><g fill="#ffffff" fill-opacity="1"><g transform="translate(188.095316, 269.184239)"><g><path d="M 23.28125 -23.953125 L 15.4375 0 L 7.8125 0 L 0 -23.953125 L 7.28125 -23.953125 L 10.53125 -11.8125 C 10.65625 -11.351562 10.796875 -10.765625 10.953125 -10.046875 C 11.109375 -9.335938 11.253906 -8.625 11.390625 -7.90625 C 11.535156 -7.195312 11.625 -6.617188 11.65625 -6.171875 C 11.695312 -6.617188 11.773438 -7.191406 11.890625 -7.890625 C 12.015625 -8.597656 12.148438 -9.300781 12.296875 -10 C 12.441406 -10.707031 12.582031 -11.289062 12.71875 -11.75 L 16.046875 -23.953125 Z M 23.28125 -23.953125 "/></g></g></g><g fill="#ffffff" fill-opacity="1"><g transform="translate(214.705608, 269.184239)"><g><path d="M 2.59375 0 L 2.59375 -23.953125 L 9.09375 -23.953125 L 9.09375 0 Z M 2.59375 0 "/></g></g></g><g fill="#ffffff" fill-opacity="1"><g transform="translate(229.713241, 269.184239)"><g><path d="M 16.8125 0 L 2.59375 0 L 2.59375 -23.953125 L 16.8125 -23.953125 L 16.8125 -18.765625 L 9.0625 -18.765625 L 9.0625 -15 L 16.234375 -15 L 16.234375 -9.796875 L 9.0625 -9.796875 L 9.0625 -5.28125 L 16.8125 -5.28125 Z M 16.8125 0 "/></g></g></g><g fill="#ffffff" fill-opacity="1"><g transform="translate(251.456315, 269.184239)"><g><path d="M 34.359375 -23.953125 L 28.46875 0 L 20.8125 0 L 18.515625 -10.4375 C 18.472656 -10.632812 18.40625 -10.96875 18.3125 -11.4375 C 18.21875 -11.90625 18.113281 -12.441406 18 -13.046875 C 17.882812 -13.648438 17.78125 -14.242188 17.6875 -14.828125 C 17.59375 -15.410156 17.523438 -15.90625 17.484375 -16.3125 C 17.441406 -15.90625 17.367188 -15.410156 17.265625 -14.828125 C 17.171875 -14.242188 17.066406 -13.648438 16.953125 -13.046875 C 16.835938 -12.441406 16.726562 -11.90625 16.625 -11.4375 C 16.519531 -10.96875 16.445312 -10.632812 16.40625 -10.4375 L 14.09375 0 L 6.4375 0 L 0.515625 -23.953125 L 6.75 -23.953125 L 9.359375 -11.953125 C 9.421875 -11.648438 9.507812 -11.226562 9.625 -10.6875 C 9.738281 -10.144531 9.859375 -9.554688 9.984375 -8.921875 C 10.109375 -8.285156 10.222656 -7.671875 10.328125 -7.078125 C 10.441406 -6.484375 10.519531 -5.992188 10.5625 -5.609375 C 10.65625 -6.285156 10.773438 -7.050781 10.921875 -7.90625 C 11.066406 -8.769531 11.226562 -9.644531 11.40625 -10.53125 C 11.59375 -11.425781 11.765625 -12.253906 11.921875 -13.015625 C 12.085938 -13.785156 12.234375 -14.410156 12.359375 -14.890625 L 14.46875 -23.953125 L 20.46875 -23.953125 L 22.515625 -14.890625 C 22.628906 -14.421875 22.769531 -13.800781 22.9375 -13.03125 C 23.101562 -12.257812 23.273438 -11.425781 23.453125 -10.53125 C 23.640625 -9.632812 23.804688 -8.753906 23.953125 -7.890625 C 24.109375 -7.023438 24.222656 -6.265625 24.296875 -5.609375 C 24.367188 -6.148438 24.476562 -6.835938 24.625 -7.671875 C 24.78125 -8.515625 24.9375 -9.332031 25.09375 -10.125 C 25.25 -10.914062 25.375 -11.507812 25.46875 -11.90625 L 28.125 -23.953125 Z M 34.359375 -23.953125 "/></g></g></g><g fill="#ffffff" fill-opacity="1"><g transform="translate(61.624625, 292.456944)"><g><path d="M 10.101562 -10.917969 L 10.101562 -14.027344 L 1.402344 -14.027344 L 1.402344 0 L 4.980469 0 L 4.980469 -5.472656 L 9.304688 -5.472656 L 9.304688 -8.558594 L 4.980469 -8.558594 L 4.980469 -10.917969 Z M 10.101562 -10.917969 "/></g></g></g><g fill="#ffffff" fill-opacity="1"><g transform="translate(78.266981, 292.456944)"><g><path d="M 7.226562 0.1875 C 10.589844 0.1875 13.234375 -1.847656 13.234375 -4.464844 L 13.234375 -14.027344 L 9.65625 -14.027344 L 9.65625 -5.144531 C 9.65625 -3.90625 8.582031 -2.921875 7.226562 -2.921875 C 5.867188 -2.921875 4.792969 -3.90625 4.792969 -5.144531 L 4.792969 -14.027344 L 1.214844 -14.027344 L 1.214844 -4.464844 C 1.214844 -1.847656 3.859375 0.1875 7.226562 0.1875 Z M 7.226562 0.1875 "/></g></g></g><g fill="#ffffff" fill-opacity="1"><g transform="translate(99.094155, 292.456944)"><g><path d="M 11.363281 -14.027344 L 11.363281 -5.449219 L 5.027344 -14.027344 L 1.285156 -14.027344 L 1.285156 0 L 4.863281 0 L 4.863281 -8.605469 L 11.175781 0 L 14.941406 0 L 14.941406 -14.027344 Z M 11.363281 -14.027344 "/></g></g></g><g fill="#ffffff" fill-opacity="1"><g transform="translate(121.698115, 292.456944)"><g><path d="M 10.101562 -10.917969 L 10.101562 -14.027344 L 1.402344 -14.027344 L 1.402344 0 L 10.101562 0 L 10.101562 -3.109375 L 4.980469 -3.109375 L 4.980469 -5.472656 L 9.304688 -5.472656 L 9.304688 -8.558594 L 4.980469 -8.558594 L 4.980469 -10.917969 Z M 10.101562 -10.917969 "/></g></g></g><g fill="#ffffff" fill-opacity="1"><g transform="translate(138.971705, 292.456944)"><g><path d="M 9.09375 -5.566406 C 10.707031 -6.125 11.832031 -7.691406 11.832031 -9.609375 C 11.832031 -12.042969 10.03125 -14.027344 7.527344 -14.027344 L 1.285156 -14.027344 L 1.285156 0 L 4.863281 0 L 4.863281 -5.144531 L 5.683594 -5.144531 L 8.953125 0 L 12.976562 0 Z M 6.945312 -8.019531 L 4.863281 -8.019531 L 4.863281 -10.917969 L 6.945312 -10.917969 C 7.785156 -10.917969 8.394531 -10.3125 8.394531 -9.46875 C 8.394531 -8.628906 7.785156 -8.019531 6.945312 -8.019531 Z M 6.945312 -8.019531 "/></g></g></g><g fill="#ffffff" fill-opacity="1"><g transform="translate(158.115604, 292.456944)"><g><path d="M 9.890625 0 L 13.726562 0 L 8.652344 -14.027344 L 4.652344 -14.027344 L -0.421875 0 L 3.4375 0 L 4.207031 -2.453125 L 9.117188 -2.453125 Z M 5.121094 -5.355469 L 6.664062 -10.3125 L 8.230469 -5.355469 Z M 5.121094 -5.355469 "/></g></g></g><g fill="#ffffff" fill-opacity="1"><g transform="translate(177.820589, 292.456944)"><g><path d="M 4.863281 -3.109375 L 4.863281 -14.027344 L 1.285156 -14.027344 L 1.285156 0 L 9.328125 0 L 9.328125 -3.109375 Z M 4.863281 -3.109375 "/></g></g></g><g fill="#ffffff" fill-opacity="1"><g transform="translate(193.527787, 292.456944)"><g/></g></g><g fill="#ffffff" fill-opacity="1"><g transform="translate(205.51775, 292.456944)"><g><path d="M 7.527344 -14.027344 L 1.285156 -14.027344 L 1.285156 0 L 4.863281 0 L 4.863281 -5.496094 L 7.527344 -5.496094 C 9.960938 -5.496094 11.832031 -7.273438 11.832031 -9.703125 C 11.832031 -12.089844 9.960938 -14.027344 7.527344 -14.027344 Z M 6.945312 -8.394531 L 4.863281 -8.394531 L 4.863281 -10.917969 L 6.945312 -10.917969 C 7.785156 -10.917969 8.394531 -10.40625 8.394531 -9.679688 C 8.394531 -8.929688 7.785156 -8.394531 6.945312 -8.394531 Z M 6.945312 -8.394531 "/></g></g></g><g fill="#ffffff" fill-opacity="1"><g transform="translate(223.703109, 292.456944)"><g><path d="M 9.890625 0 L 13.726562 0 L 8.652344 -14.027344 L 4.652344 -14.027344 L -0.421875 0 L 3.4375 0 L 4.207031 -2.453125 L 9.117188 -2.453125 Z M 5.121094 -5.355469 L 6.664062 -10.3125 L 8.230469 -5.355469 Z M 5.121094 -5.355469 "/></g></g></g><g fill="#ffffff" fill-opacity="1"><g transform="translate(243.408094, 292.456944)"><g><path d="M 9.09375 -5.566406 C 10.707031 -6.125 11.832031 -7.691406 11.832031 -9.609375 C 11.832031 -12.042969 10.03125 -14.027344 7.527344 -14.027344 L 1.285156 -14.027344 L 1.285156 0 L 4.863281 0 L 4.863281 -5.144531 L 5.683594 -5.144531 L 8.953125 0 L 12.976562 0 Z M 6.945312 -8.019531 L 4.863281 -8.019531 L 4.863281 -10.917969 L 6.945312 -10.917969 C 7.785156 -10.917969 8.394531 -10.3125 8.394531 -9.46875 C 8.394531 -8.628906 7.785156 -8.019531 6.945312 -8.019531 Z M 6.945312 -8.019531 "/></g></g></g><g fill="#ffffff" fill-opacity="1"><g transform="translate(262.551987, 292.456944)"><g><path d="M 4.863281 -3.109375 L 4.863281 -14.027344 L 1.285156 -14.027344 L 1.285156 0 L 9.328125 0 L 9.328125 -3.109375 Z M 4.863281 -3.109375 "/></g></g></g><g fill="#ffffff" fill-opacity="1"><g transform="translate(278.259185, 292.456944)"><g><path d="M 7.996094 0.1875 C 11.972656 0.1875 15.199219 -3.039062 15.199219 -7.015625 C 15.199219 -10.988281 11.972656 -14.214844 7.996094 -14.214844 C 4 -14.214844 0.796875 -10.988281 0.796875 -7.015625 C 0.796875 -3.039062 4 0.1875 7.996094 0.1875 Z M 7.996094 -3.320312 C 5.867188 -3.320312 4.277344 -4.886719 4.277344 -7.015625 C 4.277344 -9.140625 5.867188 -10.707031 7.996094 -10.707031 C 10.101562 -10.707031 11.691406 -9.140625 11.691406 -7.015625 C 11.691406 -4.886719 10.101562 -3.320312 7.996094 -3.320312 Z M 7.996094 -3.320312 "/></g></g></g><g fill="#ffffff" fill-opacity="1"><g transform="translate(300.605993, 292.456944)"><g><path d="M 9.09375 -5.566406 C 10.707031 -6.125 11.832031 -7.691406 11.832031 -9.609375 C 11.832031 -12.042969 10.03125 -14.027344 7.527344 -14.027344 L 1.285156 -14.027344 L 1.285156 0 L 4.863281 0 L 4.863281 -5.144531 L 5.683594 -5.144531 L 8.953125 0 L 12.976562 0 Z M 6.945312 -8.019531 L 4.863281 -8.019531 L 4.863281 -10.917969 L 6.945312 -10.917969 C 7.785156 -10.917969 8.394531 -10.3125 8.394531 -9.46875 C 8.394531 -8.628906 7.785156 -8.019531 6.945312 -8.019531 Z M 6.945312 -8.019531 "/></g></g></g></svg>