<svg xmlns="http://www.w3.org/2000/svg" xmlns:xlink="http://www.w3.org/1999/xlink" width="500" zoomAndPan="magnify" viewBox="0 0 375 374.999991" height="500" preserveAspectRatio="xMidYMid meet" version="1.0"><defs><g/><clipPath id="9930348021"><path d="M 127 80 L 265.75 80 L 265.75 227.820312 L 127 227.820312 Z M 127 80 " clip-rule="nonzero"/></clipPath><clipPath id="903af292cc"><path d="M 115.75 77.820312 L 221 77.820312 L 221 191 L 115.75 191 Z M 115.75 77.820312 " clip-rule="nonzero"/></clipPath></defs><g clip-path="url(#9930348021)"><path fill="#dda3b9" d="M 224.390625 149.378906 C 235.332031 142.332031 241.597656 151.074219 251.171875 155.175781 C 237.433594 158.238281 236.554688 169.234375 229.140625 178.492188 C 217.78125 192.683594 204.789062 199.0625 189.515625 194.546875 C 175.488281 217.785156 154.464844 215.957031 127.644531 193.363281 C 140.992188 214.089844 164.269531 227.820312 190.75 227.820312 C 232.164062 227.820312 265.75 194.234375 265.75 152.820312 C 265.75 124.355469 249.886719 99.589844 226.519531 86.886719 C 226.957031 84.601562 228.109375 82.511719 229.289062 80.425781 C 227.03125 81.960938 225.121094 83.605469 223.523438 85.34375 C 213.386719 96.378906 215.851562 111.1875 221.671875 124.921875 C 225.679688 134.367188 226.128906 142.328125 224.390625 149.378906 Z M 232.113281 150.914062 C 233.253906 150.914062 234.179688 151.839844 234.179688 152.980469 C 234.179688 154.125 233.253906 155.050781 232.113281 155.050781 C 230.972656 155.050781 230.046875 154.125 230.046875 152.980469 C 230.046875 151.839844 230.972656 150.914062 232.113281 150.914062 Z M 232.113281 150.914062 " fill-opacity="1" fill-rule="evenodd"/></g><g clip-path="url(#903af292cc)"><path fill="#dda3b9" d="M 190.914062 129.992188 C 193.429688 109.886719 202.664062 94.109375 220.902344 84.128906 C 211.675781 80.074219 201.476562 77.820312 190.75 77.820312 C 149.335938 77.820312 115.75 111.40625 115.75 152.820312 C 115.75 164.917969 118.617188 176.34375 123.703125 186.460938 C 121.691406 188.058594 119.445312 188.960938 117.164062 189.75 C 120.101562 190.152344 123.035156 190.445312 125.972656 190.636719 C 145.886719 191.929688 165.800781 188.460938 185.71875 180.957031 C 173.875 179.472656 163.449219 175.652344 156.9375 165.367188 C 160.277344 165.890625 163.523438 165.773438 166.730469 165.367188 C 153.59375 161.59375 147.527344 152.722656 145.84375 140.683594 C 148.800781 143.835938 152.890625 145.585938 158.636719 145.28125 C 144.59375 135.832031 141.324219 122.855469 141.949219 108.609375 C 153.1875 122.722656 166.757812 129.347656 183.605469 133.898438 C 197.976562 137.78125 210.0625 144.519531 214.699219 160.570312 C 217.984375 144.476562 207.878906 135.429688 190.914062 129.992188 Z M 190.914062 129.992188 " fill-opacity="1" fill-rule="evenodd"/></g><g fill="#ffffff" fill-opacity="1"><g transform="translate(89.422019, 269.184239)"><g><path d="M 2.59375 0 L 2.59375 -23.953125 L 9.0625 -23.953125 L 9.0625 -5.234375 L 18.28125 -5.234375 L 18.28125 0 Z M 2.59375 0 "/></g></g></g><g fill="#ffffff" fill-opacity="1"><g transform="translate(112.279478, 269.184239)"><g><path d="M 17.296875 0 L 16.109375 -4.484375 L 8.328125 -4.484375 L 7.109375 0 L 0 0 L 7.8125 -24.0625 L 16.453125 -24.0625 L 24.375 0 Z M 14.765625 -9.796875 L 13.734375 -13.734375 C 13.617188 -14.160156 13.457031 -14.769531 13.25 -15.5625 C 13.050781 -16.351562 12.847656 -17.171875 12.640625 -18.015625 C 12.441406 -18.859375 12.285156 -19.554688 12.171875 -20.109375 C 12.078125 -19.554688 11.9375 -18.878906 11.75 -18.078125 C 11.570312 -17.273438 11.390625 -16.476562 11.203125 -15.6875 C 11.015625 -14.90625 10.847656 -14.253906 10.703125 -13.734375 L 9.671875 -9.796875 Z M 14.765625 -9.796875 "/></g></g></g><g fill="#ffffff" fill-opacity="1"><g transform="translate(139.971374, 269.184239)"><g><path d="M 23.0625 0 L 15.75 0 L 11.015625 -9.15625 L 9.09375 -8.015625 L 9.09375 0 L 2.59375 0 L 2.59375 -23.953125 L 9.09375 -23.953125 L 9.09375 -13.546875 C 9.363281 -14.078125 9.675781 -14.601562 10.03125 -15.125 C 10.382812 -15.644531 10.734375 -16.144531 11.078125 -16.625 L 16.109375 -23.953125 L 23.1875 -23.953125 L 15.640625 -13.21875 Z M 23.0625 0 "/></g></g></g><g fill="#ffffff" fill-opacity="1"><g transform="translate(166.352242, 269.184239)"><g><path d="M 16.8125 0 L 2.59375 0 L 2.59375 -23.953125 L 16.8125 -23.953125 L 16.8125 -18.765625 L 9.0625 -18.765625 L 9.0625 -15 L 16.234375 -15 L 16.234375 -9.796875 L 9.0625 -9.796875 L 9.0625 -5.28125 L 16.8125 -5.28125 Z M 16.8125 0 "/></g></g></g><g fill="#ffffff" fill-opacity="1"><g transform="translate(188.095316, 269.184239)"><g><path d="M 23.28125 -23.953125 L 15.4375 0 L 7.8125 0 L 0 -23.953125 L 7.28125 -23.953125 L 10.53125 -11.8125 C 10.65625 -11.351562 10.796875 -10.765625 10.953125 -10.046875 C 11.109375 -9.335938 11.253906 -8.625 11.390625 -7.90625 C 11.535156 -7.195312 11.625 -6.617188 11.65625 -6.171875 C 11.695312 -6.617188 11.773438 -7.191406 11.890625 -7.890625 C 12.015625 -8.597656 12.148438 -9.300781 12.296875 -10 C 12.441406 -10.707031 12.582031 -11.289062 12.71875 -11.75 L 16.046875 -23.953125 Z M 23.28125 -23.953125 "/></g></g></g><g fill="#ffffff" fill-opacity="1"><g transform="translate(214.705608, 269.184239)"><g><path d="M 2.59375 0 L 2.59375 -23.953125 L 9.09375 -23.953125 L 9.09375 0 Z M 2.59375 0 "/></g></g></g><g fill="#ffffff" fill-opacity="1"><g transform="translate(229.713241, 269.184239)"><g><path d="M 16.8125 0 L 2.59375 0 L 2.59375 -23.953125 L 16.8125 -23.953125 L 16.8125 -18.765625 L 9.0625 -18.765625 L 9.0625 -15 L 16.234375 -15 L 16.234375 -9.796875 L 9.0625 -9.796875 L 9.0625 -5.28125 L 16.8125 -5.28125 Z M 16.8125 0 "/></g></g></g><g fill="#ffffff" fill-opacity="1"><g transform="translate(251.456315, 269.184239)"><g><path d="M 34.359375 -23.953125 L 28.46875 0 L 20.8125 0 L 18.515625 -10.4375 C 18.472656 -10.632812 18.40625 -10.96875 18.3125 -11.4375 C 18.21875 -11.90625 18.113281 -12.441406 18 -13.046875 C 17.882812 -13.648438 17.78125 -14.242188 17.6875 -14.828125 C 17.59375 -15.410156 17.523438 -15.90625 17.484375 -16.3125 C 17.441406 -15.90625 17.367188 -15.410156 17.265625 -14.828125 C 17.171875 -14.242188 17.066406 -13.648438 16.953125 -13.046875 C 16.835938 -12.441406 16.726562 -11.90625 16.625 -11.4375 C 16.519531 -10.96875 16.445312 -10.632812 16.40625 -10.4375 L 14.09375 0 L 6.4375 0 L 0.515625 -23.953125 L 6.75 -23.953125 L 9.359375 -11.953125 C 9.421875 -11.648438 9.507812 -11.226562 9.625 -10.6875 C 9.738281 -10.144531 9.859375 -9.554688 9.984375 -8.921875 C 10.109375 -8.285156 10.222656 -7.671875 10.328125 -7.078125 C 10.441406 -6.484375 10.519531 -5.992188 10.5625 -5.609375 C 10.65625 -6.285156 10.773438 -7.050781 10.921875 -7.90625 C 11.066406 -8.769531 11.226562 -9.644531 11.40625 -10.53125 C 11.59375 -11.425781 11.765625 -12.253906 11.921875 -13.015625 C 12.085938 -13.785156 12.234375 -14.410156 12.359375 -14.890625 L 14.46875 -23.953125 L 20.46875 -23.953125 L 22.515625 -14.890625 C 22.628906 -14.421875 22.769531 -13.800781 22.9375 -13.03125 C 23.101562 -12.257812 23.273438 -11.425781 23.453125 -10.53125 C 23.640625 -9.632812 23.804688 -8.753906 23.953125 -7.890625 C 24.109375 -7.023438 24.222656 -6.265625 24.296875 -5.609375 C 24.367188 -6.148438 24.476562 -6.835938 24.625 -7.671875 C 24.78125 -8.515625 24.9375 -9.332031 25.09375 -10.125 C 25.25 -10.914062 25.375 -11.507812 25.46875 -11.90625 L 28.125 -23.953125 Z M 34.359375 -23.953125 "/></g></g></g><g fill="#ffffff" fill-opacity="1"><g transform="translate(56.238256, 300.771016)"><g><path d="M 6.828125 0 L 1.96875 0 L 1.96875 -18.25 L 12.75 -18.25 L 12.75 -14.296875 L 6.828125 -14.296875 L 6.828125 -10.8125 L 12.296875 -10.8125 L 12.296875 -6.859375 L 6.828125 -6.859375 Z M 6.828125 0 "/></g></g></g><g fill="#ffffff" fill-opacity="1"><g transform="translate(72.546989, 300.771016)"><g><path d="M 17.484375 -18.25 L 17.484375 -7.265625 C 17.484375 -5.734375 17.191406 -4.398438 16.609375 -3.265625 C 16.023438 -2.140625 15.148438 -1.269531 13.984375 -0.65625 C 12.828125 -0.0507812 11.367188 0.25 9.609375 0.25 C 7.097656 0.25 5.179688 -0.394531 3.859375 -1.6875 C 2.535156 -2.976562 1.875 -4.800781 1.875 -7.15625 L 1.875 -18.25 L 6.828125 -18.25 L 6.828125 -7.53125 C 6.828125 -6.25 7.066406 -5.316406 7.546875 -4.734375 C 8.035156 -4.148438 8.75 -3.859375 9.6875 -3.859375 C 10.363281 -3.859375 10.910156 -3.984375 11.328125 -4.234375 C 11.753906 -4.492188 12.066406 -4.894531 12.265625 -5.4375 C 12.460938 -5.988281 12.5625 -6.695312 12.5625 -7.5625 L 12.5625 -18.25 Z M 17.484375 -18.25 "/></g></g></g><g fill="#ffffff" fill-opacity="1"><g transform="translate(94.421706, 300.771016)"><g><path d="M 19.34375 0 L 12.875 0 L 6.21875 -12.859375 L 6.109375 -12.859375 C 6.148438 -12.460938 6.1875 -11.988281 6.21875 -11.4375 C 6.25 -10.894531 6.273438 -10.335938 6.296875 -9.765625 C 6.328125 -9.191406 6.34375 -8.675781 6.34375 -8.21875 L 6.34375 0 L 1.96875 0 L 1.96875 -18.25 L 8.40625 -18.25 L 15.046875 -5.5625 L 15.125 -5.5625 C 15.101562 -5.96875 15.078125 -6.429688 15.046875 -6.953125 C 15.023438 -7.484375 15.003906 -8.019531 14.984375 -8.5625 C 14.960938 -9.101562 14.953125 -9.582031 14.953125 -10 L 14.953125 -18.25 L 19.34375 -18.25 Z M 19.34375 0 "/></g></g></g><g fill="#ffffff" fill-opacity="1"><g transform="translate(118.268227, 300.771016)"><g><path d="M 12.8125 0 L 1.96875 0 L 1.96875 -18.25 L 12.8125 -18.25 L 12.8125 -14.296875 L 6.90625 -14.296875 L 6.90625 -11.421875 L 12.375 -11.421875 L 12.375 -7.46875 L 6.90625 -7.46875 L 6.90625 -4.015625 L 12.8125 -4.015625 Z M 12.8125 0 "/></g></g></g><g fill="#ffffff" fill-opacity="1"><g transform="translate(134.826556, 300.771016)"><g><path d="M 7.953125 -18.25 C 9.609375 -18.25 10.984375 -18.046875 12.078125 -17.640625 C 13.179688 -17.234375 14.007812 -16.628906 14.5625 -15.828125 C 15.113281 -15.035156 15.390625 -14.046875 15.390625 -12.859375 C 15.390625 -12.117188 15.265625 -11.441406 15.015625 -10.828125 C 14.765625 -10.222656 14.40625 -9.679688 13.9375 -9.203125 C 13.476562 -8.722656 12.929688 -8.304688 12.296875 -7.953125 L 17.609375 0 L 12.015625 0 L 8.15625 -6.640625 L 6.90625 -6.640625 L 6.90625 0 L 1.96875 0 L 1.96875 -18.25 Z M 7.875 -14.515625 L 6.90625 -14.515625 L 6.90625 -10.34375 L 7.828125 -10.34375 C 8.585938 -10.34375 9.207031 -10.507812 9.6875 -10.84375 C 10.164062 -11.175781 10.40625 -11.769531 10.40625 -12.625 C 10.40625 -13.21875 10.207031 -13.679688 9.8125 -14.015625 C 9.414062 -14.347656 8.769531 -14.515625 7.875 -14.515625 Z M 7.875 -14.515625 "/></g></g></g><g fill="#ffffff" fill-opacity="1"><g transform="translate(154.654589, 300.771016)"><g><path d="M 13.171875 0 L 12.265625 -3.421875 L 6.34375 -3.421875 L 5.421875 0 L 0 0 L 5.953125 -18.328125 L 12.53125 -18.328125 L 18.5625 0 Z M 11.25 -7.46875 L 10.453125 -10.453125 C 10.367188 -10.785156 10.25 -11.25 10.09375 -11.84375 C 9.9375 -12.445312 9.78125 -13.070312 9.625 -13.71875 C 9.476562 -14.363281 9.363281 -14.894531 9.28125 -15.3125 C 9.195312 -14.894531 9.085938 -14.378906 8.953125 -13.765625 C 8.816406 -13.160156 8.675781 -12.554688 8.53125 -11.953125 C 8.382812 -11.359375 8.257812 -10.859375 8.15625 -10.453125 L 7.359375 -7.46875 Z M 11.25 -7.46875 "/></g></g></g><g fill="#ffffff" fill-opacity="1"><g transform="translate(175.743084, 300.771016)"><g><path d="M 1.96875 0 L 1.96875 -18.25 L 6.90625 -18.25 L 6.90625 -3.984375 L 13.921875 -3.984375 L 13.921875 0 Z M 1.96875 0 "/></g></g></g><g fill="#ffffff" fill-opacity="1"><g transform="translate(193.150039, 300.771016)"><g/></g></g><g fill="#ffffff" fill-opacity="1"><g transform="translate(202.320337, 300.771016)"><g><path d="M 8.28125 -18.25 C 10.59375 -18.25 12.328125 -17.742188 13.484375 -16.734375 C 14.640625 -15.734375 15.21875 -14.300781 15.21875 -12.4375 C 15.21875 -11.613281 15.097656 -10.816406 14.859375 -10.046875 C 14.617188 -9.285156 14.226562 -8.601562 13.6875 -8 C 13.15625 -7.40625 12.445312 -6.929688 11.5625 -6.578125 C 10.675781 -6.222656 9.582031 -6.046875 8.28125 -6.046875 L 6.90625 -6.046875 L 6.90625 0 L 1.96875 0 L 1.96875 -18.25 Z M 8.171875 -14.265625 L 6.90625 -14.265625 L 6.90625 -10.078125 L 7.875 -10.078125 C 8.300781 -10.078125 8.695312 -10.148438 9.0625 -10.296875 C 9.425781 -10.441406 9.71875 -10.675781 9.9375 -11 C 10.15625 -11.332031 10.265625 -11.769531 10.265625 -12.3125 C 10.265625 -12.894531 10.09375 -13.363281 9.75 -13.71875 C 9.414062 -14.082031 8.890625 -14.265625 8.171875 -14.265625 Z M 8.171875 -14.265625 "/></g></g></g><g fill="#ffffff" fill-opacity="1"><g transform="translate(221.00023, 300.771016)"><g><path d="M 13.171875 0 L 12.265625 -3.421875 L 6.34375 -3.421875 L 5.421875 0 L 0 0 L 5.953125 -18.328125 L 12.53125 -18.328125 L 18.5625 0 Z M 11.25 -7.46875 L 10.453125 -10.453125 C 10.367188 -10.785156 10.25 -11.25 10.09375 -11.84375 C 9.9375 -12.445312 9.78125 -13.070312 9.625 -13.71875 C 9.476562 -14.363281 9.363281 -14.894531 9.28125 -15.3125 C 9.195312 -14.894531 9.085938 -14.378906 8.953125 -13.765625 C 8.816406 -13.160156 8.675781 -12.554688 8.53125 -11.953125 C 8.382812 -11.359375 8.257812 -10.859375 8.15625 -10.453125 L 7.359375 -7.46875 Z M 11.25 -7.46875 "/></g></g></g><g fill="#ffffff" fill-opacity="1"><g transform="translate(242.088726, 300.771016)"><g><path d="M 7.953125 -18.25 C 9.609375 -18.25 10.984375 -18.046875 12.078125 -17.640625 C 13.179688 -17.234375 14.007812 -16.628906 14.5625 -15.828125 C 15.113281 -15.035156 15.390625 -14.046875 15.390625 -12.859375 C 15.390625 -12.117188 15.265625 -11.441406 15.015625 -10.828125 C 14.765625 -10.222656 14.40625 -9.679688 13.9375 -9.203125 C 13.476562 -8.722656 12.929688 -8.304688 12.296875 -7.953125 L 17.609375 0 L 12.015625 0 L 8.15625 -6.640625 L 6.90625 -6.640625 L 6.90625 0 L 1.96875 0 L 1.96875 -18.25 Z M 7.875 -14.515625 L 6.90625 -14.515625 L 6.90625 -10.34375 L 7.828125 -10.34375 C 8.585938 -10.34375 9.207031 -10.507812 9.6875 -10.84375 C 10.164062 -11.175781 10.40625 -11.769531 10.40625 -12.625 C 10.40625 -13.21875 10.207031 -13.679688 9.8125 -14.015625 C 9.414062 -14.347656 8.769531 -14.515625 7.875 -14.515625 Z M 7.875 -14.515625 "/></g></g></g><g fill="#ffffff" fill-opacity="1"><g transform="translate(261.916769, 300.771016)"><g><path d="M 1.96875 0 L 1.96875 -18.25 L 6.90625 -18.25 L 6.90625 -3.984375 L 13.921875 -3.984375 L 13.921875 0 Z M 1.96875 0 "/></g></g></g><g fill="#ffffff" fill-opacity="1"><g transform="translate(279.323735, 300.771016)"><g><path d="M 19.046875 -9.15625 C 19.046875 -7.75 18.875 -6.46875 18.53125 -5.3125 C 18.195312 -4.15625 17.671875 -3.160156 16.953125 -2.328125 C 16.242188 -1.492188 15.328125 -0.851562 14.203125 -0.40625 C 13.078125 0.03125 11.734375 0.25 10.171875 0.25 C 8.640625 0.25 7.3125 0.03125 6.1875 -0.40625 C 5.070312 -0.851562 4.148438 -1.488281 3.421875 -2.3125 C 2.703125 -3.144531 2.164062 -4.140625 1.8125 -5.296875 C 1.46875 -6.460938 1.296875 -7.753906 1.296875 -9.171875 C 1.296875 -11.066406 1.609375 -12.710938 2.234375 -14.109375 C 2.867188 -15.515625 3.84375 -16.601562 5.15625 -17.375 C 6.46875 -18.144531 8.148438 -18.53125 10.203125 -18.53125 C 12.273438 -18.53125 13.960938 -18.144531 15.265625 -17.375 C 16.566406 -16.601562 17.519531 -15.515625 18.125 -14.109375 C 18.738281 -12.703125 19.046875 -11.050781 19.046875 -9.15625 Z M 6.484375 -9.15625 C 6.484375 -8.050781 6.609375 -7.101562 6.859375 -6.3125 C 7.109375 -5.519531 7.503906 -4.910156 8.046875 -4.484375 C 8.585938 -4.066406 9.296875 -3.859375 10.171875 -3.859375 C 11.078125 -3.859375 11.796875 -4.066406 12.328125 -4.484375 C 12.867188 -4.910156 13.257812 -5.519531 13.5 -6.3125 C 13.738281 -7.101562 13.859375 -8.050781 13.859375 -9.15625 C 13.859375 -10.800781 13.582031 -12.097656 13.03125 -13.046875 C 12.476562 -14.003906 11.535156 -14.484375 10.203125 -14.484375 C 9.304688 -14.484375 8.585938 -14.265625 8.046875 -13.828125 C 7.503906 -13.398438 7.109375 -12.785156 6.859375 -11.984375 C 6.609375 -11.191406 6.484375 -10.25 6.484375 -9.15625 Z M 6.484375 -9.15625 "/></g></g></g><g fill="#ffffff" fill-opacity="1"><g transform="translate(302.221805, 300.771016)"><g><path d="M 7.953125 -18.25 C 9.609375 -18.25 10.984375 -18.046875 12.078125 -17.640625 C 13.179688 -17.234375 14.007812 -16.628906 14.5625 -15.828125 C 15.113281 -15.035156 15.390625 -14.046875 15.390625 -12.859375 C 15.390625 -12.117188 15.265625 -11.441406 15.015625 -10.828125 C 14.765625 -10.222656 14.40625 -9.679688 13.9375 -9.203125 C 13.476562 -8.722656 12.929688 -8.304688 12.296875 -7.953125 L 17.609375 0 L 12.015625 0 L 8.15625 -6.640625 L 6.90625 -6.640625 L 6.90625 0 L 1.96875 0 L 1.96875 -18.25 Z M 7.875 -14.515625 L 6.90625 -14.515625 L 6.90625 -10.34375 L 7.828125 -10.34375 C 8.585938 -10.34375 9.207031 -10.507812 9.6875 -10.84375 C 10.164062 -11.175781 10.40625 -11.769531 10.40625 -12.625 C 10.40625 -13.21875 10.207031 -13.679688 9.8125 -14.015625 C 9.414062 -14.347656 8.769531 -14.515625 7.875 -14.515625 Z M 7.875 -14.515625 "/></g></g></g></svg>