<?xml version="1.0" encoding="utf-8"?>
<!-- Generator: Adobe Illustrator 24.0.2, SVG Export Plug-In . SVG Version: 6.00 Build 0)  -->
<svg version="1.1" id="Layer_1" xmlns="http://www.w3.org/2000/svg" xmlns:xlink="http://www.w3.org/1999/xlink" x="0px" y="0px"
	 viewBox="0 0 500 500" style="enable-background:new 0 0 500 500;" xml:space="preserve">
<style type="text/css">
	.st0{clip-path:url(#SVGID_2_);}
	.st1{fill-rule:evenodd;clip-rule:evenodd;fill:#CCCCCC;}
	.st2{clip-path:url(#SVGID_4_);}
</style>
<g>
	<defs>
		<rect id="SVGID_1_" x="169.3" y="106.7" width="185" height="197.1"/>
	</defs>
	<clipPath id="SVGID_2_">
		<use xlink:href="#SVGID_1_"  style="overflow:visible;"/>
	</clipPath>
	<g class="st0">
		<path class="st1" d="M299.2,199.2c14.6-9.4,22.9,2.3,35.7,7.7c-18.3,4.1-19.5,18.7-29.4,31.1c-15.1,18.9-32.5,27.4-52.8,21.4
			c-18.7,31-46.7,28.5-82.5-1.6c17.8,27.6,48.8,45.9,84.1,45.9c55.2,0,100-44.8,100-100c0-38-21.2-71-52.3-87.9
			c0.6-3,2.1-5.8,3.7-8.6c-3,2-5.6,4.2-7.7,6.6c-13.5,14.7-10.2,34.5-2.5,52.8C300.9,179.2,301.5,189.8,299.2,199.2z M309.5,201.2
			c1.5,0,2.8,1.2,2.8,2.8c0,1.5-1.2,2.8-2.8,2.8c-1.5,0-2.8-1.2-2.8-2.8C306.7,202.5,308,201.2,309.5,201.2z"/>
	</g>
</g>
<g>
	<defs>
		<rect id="SVGID_3_" x="154.3" y="103.8" width="140.3" height="150.9"/>
	</defs>
	<clipPath id="SVGID_4_">
		<use xlink:href="#SVGID_3_"  style="overflow:visible;"/>
	</clipPath>
	<g class="st2">
		<path class="st1" d="M254.6,173.3c3.4-26.8,15.7-47.8,40-61.2c-12.3-5.4-25.9-8.4-40.2-8.4c-55.2,0-100,44.8-100,100
			c0,16.1,3.8,31.4,10.6,44.9c-2.7,2.1-5.7,3.3-8.7,4.4c3.9,0.5,7.8,0.9,11.7,1.2c26.6,1.7,53.1-2.9,79.7-12.9
			c-15.8-2-29.7-7.1-38.4-20.8c4.5,0.7,8.8,0.5,13.1,0c-17.5-5-25.6-16.9-27.8-32.9c3.9,4.2,9.4,6.5,17.1,6.1
			c-18.7-12.6-23.1-29.9-22.2-48.9c15,18.8,33.1,27.7,55.5,33.7c19.2,5.2,35.3,14.2,41.5,35.6C290.6,192.6,277.2,180.6,254.6,173.3z
			"/>
	</g>
</g>
<g>
	<g transform="translate(193.150039, 300.771016)">
	</g>
</g>
</svg>
